<?xml version="1.0" encoding="utf-8"?>
<!-- Generator: Adobe Illustrator 16.0.0, SVG Export Plug-In . SVG Version: 6.00 Build 0)  -->
<!DOCTYPE svg PUBLIC "-//W3C//DTD SVG 1.1//EN" "http://www.w3.org/Graphics/SVG/1.1/DTD/svg11.dtd">
<svg version="1.1" xmlns="http://www.w3.org/2000/svg" xmlns:xlink="http://www.w3.org/1999/xlink" x="0px" y="0px"
	 width="49.375px" height="49.375px" viewBox="0 0 49.375 49.375" enable-background="new 0 0 49.375 49.375" xml:space="preserve">
<g id="Layer_1">
	<circle fill="#02B2D3" cx="24.422" cy="24.24" r="23"/>
</g>
<g id="Layer_11_copy">
	<polyline fill="none" points="1.596,1.806 45.572,1.806 45.572,45.78 1.596,45.78 	"/>
	<g>
		<g>
			<g opacity="0.2">
				<g>
					<defs>
						<rect id="SVGID_1_" x="10.922" y="19.792" width="31.222" height="18.747"/>
					</defs>
					<clipPath id="SVGID_2_">
						<use xlink:href="#SVGID_1_"  overflow="visible"/>
					</clipPath>
					<path clip-path="url(#SVGID_2_)" fill="#231F20" d="M15.214,38.438c-0.796,0.304-1.688-0.095-1.991-0.891l-2.2-5.765
						c-0.304-0.796,0.096-1.688,0.892-1.991l25.937-9.896c0.796-0.304,1.688,0.095,1.991,0.891l2.199,5.765
						c0.304,0.795-0.096,1.687-0.892,1.991L15.214,38.438z"/>
				</g>
			</g>
			<path fill="#77B3D4" d="M15.152,36.305c-0.318,0-0.607-0.199-0.721-0.496l-2.2-5.764c-0.074-0.193-0.067-0.402,0.016-0.59
				c0.085-0.188,0.237-0.332,0.43-0.406l25.937-9.897c0.089-0.034,0.182-0.051,0.274-0.051c0.318,0,0.608,0.2,0.721,0.497
				l2.199,5.764c0.074,0.192,0.067,0.402-0.016,0.59c-0.084,0.188-0.236,0.332-0.43,0.405l-25.938,9.897
				C15.337,36.287,15.245,36.305,15.152,36.305"/>
			<path fill="#E0E0D1" d="M38.889,19.873L38.889,19.873l2.201,5.763l-25.938,9.897l-2.199-5.764L38.889,19.873 M38.889,18.33
				c-0.183,0-0.368,0.032-0.55,0.102l-25.937,9.897c-0.796,0.304-1.194,1.195-0.892,1.991l2.201,5.764
				c0.234,0.615,0.819,0.993,1.44,0.993c0.183,0,0.37-0.033,0.55-0.102l25.938-9.898c0.796-0.303,1.195-1.194,0.891-1.99
				l-2.199-5.764C40.096,18.708,39.51,18.33,38.889,18.33"/>
			<g opacity="0.2">
				<g>
					<defs>
						<rect id="SVGID_3_" x="10.705" y="15.365" width="29.602" height="23.624"/>
					</defs>
					<clipPath id="SVGID_4_">
						<use xlink:href="#SVGID_3_"  overflow="visible"/>
					</clipPath>
				</g>
			</g>
			<g opacity="0.2">
				<g>
					<defs>
						<rect id="SVGID_5_" x="10.723" y="11.968" width="26.925" height="27.227"/>
					</defs>
					<clipPath id="SVGID_6_">
						<use xlink:href="#SVGID_5_"  overflow="visible"/>
					</clipPath>
					<path clip-path="url(#SVGID_6_)" fill="#231F20" d="M17.771,38.732c-0.596,0.608-1.573,0.617-2.181,0.021l-4.406-4.319
						c-0.607-0.596-0.618-1.573-0.021-2.182L30.598,12.43c0.597-0.609,1.574-0.618,2.182-0.021l4.405,4.318
						c0.608,0.597,0.618,1.573,0.022,2.182L17.771,38.732z"/>
				</g>
			</g>
			<path fill="#F5CF87" d="M17.157,36.961c-0.203,0-0.396-0.078-0.54-0.221l-4.405-4.319c-0.147-0.145-0.23-0.337-0.232-0.543
				c-0.001-0.206,0.077-0.4,0.22-0.547l19.436-19.824c0.146-0.15,0.342-0.231,0.551-0.231c0.203,0,0.395,0.078,0.54,0.22
				l4.404,4.319c0.147,0.146,0.229,0.338,0.232,0.544c0.001,0.206-0.076,0.4-0.221,0.547L17.708,36.729
				C17.561,36.879,17.367,36.961,17.157,36.961"/>
			<path fill="#FFFFFF" d="M32.188,12.047L32.188,12.047l4.404,4.319L17.157,36.189l-4.405-4.319l19.434-19.823
				C32.186,12.047,32.187,12.047,32.188,12.047 M32.188,10.505c-0.399,0-0.8,0.153-1.102,0.462L11.651,30.791
				c-0.596,0.608-0.586,1.584,0.021,2.182l4.406,4.318c0.3,0.294,0.69,0.44,1.08,0.44c0.4,0,0.8-0.154,1.101-0.463l19.435-19.823
				c0.597-0.608,0.587-1.584-0.021-2.181l-4.405-4.319C32.967,10.651,32.576,10.505,32.188,10.505"/>
			<g opacity="0.2">
				<g>
					<defs>
						<rect id="SVGID_7_" x="10.996" y="9.106" width="22.648" height="30.07"/>
					</defs>
					<clipPath id="SVGID_8_">
						<use xlink:href="#SVGID_7_"  overflow="visible"/>
					</clipPath>
				</g>
			</g>
			<g opacity="0.2">
				<g>
					<defs>
						<rect id="SVGID_9_" x="11.478" y="7.542" width="17.718" height="31.374"/>
					</defs>
					<clipPath id="SVGID_10_">
						<use xlink:href="#SVGID_9_"  overflow="visible"/>
					</clipPath>
					<path clip-path="url(#SVGID_10_)" fill="#231F20" d="M20.337,37.86c-0.27,0.81-1.143,1.245-1.951,0.977l-5.852-1.951
						c-0.809-0.27-1.245-1.144-0.976-1.951l8.779-26.336c0.27-0.809,1.143-1.246,1.95-0.976l5.854,1.951
						c0.808,0.269,1.244,1.142,0.975,1.951L20.337,37.86z"/>
				</g>
			</g>
			<path fill="#C75C5C" d="M19.362,36.682c-0.082,0-0.165-0.014-0.244-0.04l-5.853-1.95c-0.197-0.066-0.354-0.203-0.446-0.387
				c-0.093-0.185-0.108-0.394-0.043-0.59l8.779-26.336c0.105-0.316,0.399-0.528,0.731-0.528c0.083,0,0.165,0.014,0.244,0.04
				l5.854,1.951c0.195,0.065,0.354,0.202,0.445,0.387c0.093,0.185,0.107,0.394,0.042,0.588l-8.779,26.336
				C19.987,36.47,19.694,36.682,19.362,36.682"/>
			<path fill="#FFFFFF" d="M22.289,7.623l5.852,1.95l-8.78,26.337l-5.852-1.951L22.289,7.623 M22.287,6.08
				c-0.645,0-1.248,0.408-1.462,1.054l-8.78,26.337c-0.27,0.808,0.167,1.681,0.975,1.95l5.853,1.951
				c0.163,0.054,0.327,0.079,0.489,0.079c0.645,0,1.246-0.408,1.463-1.055l8.778-26.336c0.27-0.808-0.168-1.682-0.977-1.951
				l-5.852-1.951C22.613,6.105,22.449,6.08,22.287,6.08"/>
			<g opacity="0.2">
				<g>
					<defs>
						<rect id="SVGID_11_" x="15.945" y="30.657" width="2.894" height="2.893"/>
					</defs>
					<clipPath id="SVGID_12_">
						<use xlink:href="#SVGID_11_"  overflow="visible"/>
					</clipPath>
					<path clip-path="url(#SVGID_12_)" fill="#231F20" d="M18.763,32.562c-0.251,0.757-1.071,1.166-1.829,0.914
						c-0.758-0.253-1.167-1.071-0.914-1.829c0.252-0.757,1.071-1.167,1.828-0.914C18.607,30.985,19.016,31.804,18.763,32.562"/>
				</g>
			</g>
			<path fill="#FFFFFF" d="M19.069,31.646c-0.253,0.758-1.072,1.167-1.83,0.915c-0.757-0.253-1.167-1.071-0.914-1.829
				c0.253-0.758,1.072-1.167,1.829-0.915C18.912,30.07,19.32,30.89,19.069,31.646"/>
		</g>
	</g>
	
		<text transform="matrix(0.954 0.2999 -0.2999 0.954 21.1934 12.9561)" fill="#FFFFFF" font-family="'TradeGothic-BoldCondTwenty'" font-size="5.5198">EN</text>
	
		<text transform="matrix(0.7235 0.6904 -0.6904 0.7235 28.9766 16.1367)" fill="#FFFFFF" font-family="'TradeGothic-BoldCondTwenty'" font-size="5.5198">FR</text>
	
		<text transform="matrix(0.348 0.9375 -0.9375 0.348 34.5186 22.2764)" fill="#FFFFFF" font-family="'TradeGothic-BoldCondTwenty'" font-size="5.5198">ES</text>
</g>
</svg>
