<?xml version="1.0" encoding="utf-8"?>
<!-- Generator: Adobe Illustrator 16.0.0, SVG Export Plug-In . SVG Version: 6.00 Build 0)  -->
<!DOCTYPE svg PUBLIC "-//W3C//DTD SVG 1.1//EN" "http://www.w3.org/Graphics/SVG/1.1/DTD/svg11.dtd">
<svg version="1.1" id="Layer_1" xmlns="http://www.w3.org/2000/svg" xmlns:xlink="http://www.w3.org/1999/xlink" x="0px" y="0px"
	 width="49.375px" height="49.375px" viewBox="0 0 49.375 49.375" enable-background="new 0 0 49.375 49.375" xml:space="preserve">
<g id="Layer_1_1_">
	<circle fill="#02B2D3" cx="24.422" cy="24.24" r="23"/>
</g>
<g>
	<g>
		<g>
			<g opacity="0.2">
				<g>
					<g>
						<g>
							<defs>
								<rect id="SVGID_1_" x="8.44" y="17.042" width="32.531" height="17.082"/>
							</defs>
							<clipPath id="SVGID_2_">
								<use xlink:href="#SVGID_1_"  overflow="visible"/>
							</clipPath>
							<path clip-path="url(#SVGID_2_)" fill="#231F20" d="M40.971,32.434c0,0.936-0.727,1.689-1.627,1.689H10.066
								c-0.899,0-1.626-0.756-1.626-1.689V18.732c0-0.934,0.728-1.69,1.626-1.69h29.277c0.9,0,1.628,0.756,1.628,1.69V32.434
								L40.971,32.434z"/>
						</g>
					</g>
				</g>
			</g>
			<path fill="#F5CF87" d="M40.971,30.807c0,0.936-0.727,1.689-1.627,1.689H10.066c-0.899,0-1.626-0.756-1.626-1.689V17.105
				c0-0.934,0.728-1.69,1.626-1.69h29.277c0.9,0,1.628,0.756,1.628,1.69V30.807L40.971,30.807z"/>
			<g opacity="0.2">
				<g>
					<g>
						<g>
							<defs>
								<rect id="SVGID_3_" x="10.473" y="18.682" width="28.464" height="12.189"/>
							</defs>
							<clipPath id="SVGID_4_">
								<use xlink:href="#SVGID_3_"  overflow="visible"/>
							</clipPath>
							<path clip-path="url(#SVGID_4_)" fill="#231F20" d="M31.117,28.43H18.292c-0.724,0-1.312,0.547-1.312,1.221
								c0,0.676,0.588,1.223,1.312,1.223h12.825c0.727,0,1.314-0.547,1.314-1.223C32.432,28.977,31.844,28.43,31.117,28.43"/>
						</g>
					</g>
					<g>
						<g>
							<defs>
								<rect id="SVGID_5_" x="10.473" y="18.682" width="28.464" height="12.189"/>
							</defs>
							<clipPath id="SVGID_6_">
								<use xlink:href="#SVGID_5_"  overflow="visible"/>
							</clipPath>
							<path clip-path="url(#SVGID_6_)" fill="#231F20" d="M14.946,28.43c-0.674,0-1.22,0.547-1.22,1.221
								c0,0.676,0.546,1.223,1.22,1.223c0.673,0,1.22-0.547,1.22-1.223C16.166,28.977,15.62,28.43,14.946,28.43"/>
						</g>
					</g>
					<g>
						<g>
							<defs>
								<rect id="SVGID_7_" x="10.473" y="18.682" width="28.464" height="12.189"/>
							</defs>
							<clipPath id="SVGID_8_">
								<use xlink:href="#SVGID_7_"  overflow="visible"/>
							</clipPath>
							<path clip-path="url(#SVGID_8_)" fill="#231F20" d="M11.693,28.43c-0.674,0-1.22,0.547-1.22,1.221
								c0,0.676,0.546,1.223,1.22,1.223c0.673,0,1.22-0.547,1.22-1.223C12.913,28.977,12.367,28.43,11.693,28.43"/>
						</g>
					</g>
					<g>
						<g>
							<defs>
								<rect id="SVGID_9_" x="10.473" y="18.682" width="28.464" height="12.189"/>
							</defs>
							<clipPath id="SVGID_10_">
								<use xlink:href="#SVGID_9_"  overflow="visible"/>
							</clipPath>
							<path clip-path="url(#SVGID_10_)" fill="#231F20" d="M37.719,28.43c-0.674,0-1.221,0.547-1.221,1.221
								c0,0.676,0.547,1.223,1.221,1.223c0.672,0,1.219-0.547,1.219-1.223C38.938,28.977,38.391,28.43,37.719,28.43"/>
						</g>
					</g>
					<g>
						<g>
							<defs>
								<rect id="SVGID_11_" x="10.473" y="18.682" width="28.464" height="12.189"/>
							</defs>
							<clipPath id="SVGID_12_">
								<use xlink:href="#SVGID_11_"  overflow="visible"/>
							</clipPath>
							<path clip-path="url(#SVGID_12_)" fill="#231F20" d="M34.465,28.43c-0.674,0-1.221,0.547-1.221,1.221
								c0,0.676,0.547,1.223,1.221,1.223s1.221-0.547,1.221-1.223C35.686,28.977,35.139,28.43,34.465,28.43"/>
						</g>
					</g>
					<g>
						<g>
							<defs>
								<rect id="SVGID_13_" x="10.473" y="18.682" width="28.464" height="12.189"/>
							</defs>
							<clipPath id="SVGID_14_">
								<use xlink:href="#SVGID_13_"  overflow="visible"/>
							</clipPath>
							<path clip-path="url(#SVGID_14_)" fill="#231F20" d="M14.946,25.054h-3.253c-0.674,0-1.22,0.547-1.22,1.221
								s0.546,1.219,1.22,1.219h3.253c0.673,0,1.22-0.545,1.22-1.219S15.62,25.054,14.946,25.054"/>
						</g>
					</g>
					<g>
						<g>
							<defs>
								<rect id="SVGID_15_" x="10.473" y="18.682" width="28.464" height="12.189"/>
							</defs>
							<clipPath id="SVGID_16_">
								<use xlink:href="#SVGID_15_"  overflow="visible"/>
							</clipPath>
							<path clip-path="url(#SVGID_16_)" fill="#231F20" d="M37.719,25.054h-3.254c-0.674,0-1.221,0.547-1.221,1.221
								s0.547,1.219,1.221,1.219h3.254c0.672,0,1.219-0.545,1.219-1.219S38.391,25.054,37.719,25.054"/>
						</g>
					</g>
					<g>
						<g>
							<defs>
								<rect id="SVGID_17_" x="10.473" y="18.682" width="28.464" height="12.189"/>
							</defs>
							<clipPath id="SVGID_18_">
								<use xlink:href="#SVGID_17_"  overflow="visible"/>
							</clipPath>
							<path clip-path="url(#SVGID_18_)" fill="#231F20" d="M14.946,21.921c-0.674,0-1.22,0.546-1.22,1.22
								c0,0.674,0.546,1.22,1.22,1.22c0.673,0,1.22-0.546,1.22-1.22C16.166,22.468,15.62,21.921,14.946,21.921"/>
						</g>
					</g>
					<g>
						<g>
							<defs>
								<rect id="SVGID_19_" x="10.473" y="18.682" width="28.464" height="12.189"/>
							</defs>
							<clipPath id="SVGID_20_">
								<use xlink:href="#SVGID_19_"  overflow="visible"/>
							</clipPath>
							<path clip-path="url(#SVGID_20_)" fill="#231F20" d="M11.693,24.361c0.673,0,1.22-0.546,1.22-1.22
								c0-0.673-0.546-1.22-1.22-1.22c-0.674,0-1.22,0.546-1.22,1.22C10.473,23.815,11.02,24.361,11.693,24.361"/>
						</g>
					</g>
					<g>
						<g>
							<defs>
								<rect id="SVGID_21_" x="10.473" y="18.682" width="28.464" height="12.189"/>
							</defs>
							<clipPath id="SVGID_22_">
								<use xlink:href="#SVGID_21_"  overflow="visible"/>
							</clipPath>
							<path clip-path="url(#SVGID_22_)" fill="#231F20" d="M37.719,21.921c-0.674,0-1.221,0.546-1.221,1.22
								c0,0.674,0.547,1.22,1.221,1.22c0.672,0,1.219-0.546,1.219-1.22C38.938,22.468,38.391,21.921,37.719,21.921"/>
						</g>
					</g>
					<g>
						<g>
							<defs>
								<rect id="SVGID_23_" x="10.473" y="18.682" width="28.464" height="12.189"/>
							</defs>
							<clipPath id="SVGID_24_">
								<use xlink:href="#SVGID_23_"  overflow="visible"/>
							</clipPath>
							<path clip-path="url(#SVGID_24_)" fill="#231F20" d="M34.465,24.361c0.674,0,1.221-0.546,1.221-1.22
								c0-0.673-0.547-1.22-1.221-1.22s-1.221,0.546-1.221,1.22C33.244,23.815,33.791,24.361,34.465,24.361"/>
						</g>
					</g>
					<g>
						<g>
							<defs>
								<rect id="SVGID_25_" x="10.473" y="18.682" width="28.464" height="12.189"/>
							</defs>
							<clipPath id="SVGID_26_">
								<use xlink:href="#SVGID_25_"  overflow="visible"/>
							</clipPath>
							<path clip-path="url(#SVGID_26_)" fill="#231F20" d="M14.946,18.682c-0.674,0-1.22,0.546-1.22,1.22
								c0,0.672,0.546,1.22,1.22,1.22c0.673,0,1.22-0.547,1.22-1.22C16.166,19.228,15.62,18.682,14.946,18.682"/>
						</g>
					</g>
					<g>
						<g>
							<defs>
								<rect id="SVGID_27_" x="10.473" y="18.682" width="28.464" height="12.189"/>
							</defs>
							<clipPath id="SVGID_28_">
								<use xlink:href="#SVGID_27_"  overflow="visible"/>
							</clipPath>
							<path clip-path="url(#SVGID_28_)" fill="#231F20" d="M11.693,21.122c0.673,0,1.22-0.547,1.22-1.22
								c0-0.674-0.546-1.22-1.22-1.22c-0.674,0-1.22,0.546-1.22,1.22C10.473,20.574,11.02,21.122,11.693,21.122"/>
						</g>
					</g>
					<g>
						<g>
							<defs>
								<rect id="SVGID_29_" x="10.473" y="18.682" width="28.464" height="12.189"/>
							</defs>
							<clipPath id="SVGID_30_">
								<use xlink:href="#SVGID_29_"  overflow="visible"/>
							</clipPath>
							<path clip-path="url(#SVGID_30_)" fill="#231F20" d="M21.453,27.494c0.673,0,1.22-0.545,1.22-1.219s-0.546-1.221-1.22-1.221
								c-0.674,0-1.22,0.547-1.22,1.221S20.779,27.494,21.453,27.494"/>
						</g>
					</g>
					<g>
						<g>
							<defs>
								<rect id="SVGID_31_" x="10.473" y="18.682" width="28.464" height="12.189"/>
							</defs>
							<clipPath id="SVGID_32_">
								<use xlink:href="#SVGID_31_"  overflow="visible"/>
							</clipPath>
							<path clip-path="url(#SVGID_32_)" fill="#231F20" d="M18.199,27.494c0.674,0,1.22-0.545,1.22-1.219s-0.546-1.221-1.22-1.221
								c-0.673,0-1.22,0.547-1.22,1.221S17.526,27.494,18.199,27.494"/>
						</g>
					</g>
					<g>
						<g>
							<defs>
								<rect id="SVGID_33_" x="10.473" y="18.682" width="28.464" height="12.189"/>
							</defs>
							<clipPath id="SVGID_34_">
								<use xlink:href="#SVGID_33_"  overflow="visible"/>
							</clipPath>
							<path clip-path="url(#SVGID_34_)" fill="#231F20" d="M21.453,24.361c0.673,0,1.22-0.546,1.22-1.22
								c0-0.673-0.546-1.22-1.22-1.22c-0.674,0-1.22,0.546-1.22,1.22C20.232,23.815,20.779,24.361,21.453,24.361"/>
						</g>
					</g>
					<g>
						<g>
							<defs>
								<rect id="SVGID_35_" x="10.473" y="18.682" width="28.464" height="12.189"/>
							</defs>
							<clipPath id="SVGID_36_">
								<use xlink:href="#SVGID_35_"  overflow="visible"/>
							</clipPath>
							<path clip-path="url(#SVGID_36_)" fill="#231F20" d="M18.199,24.361c0.674,0,1.22-0.546,1.22-1.22
								c0-0.673-0.546-1.22-1.22-1.22c-0.673,0-1.22,0.546-1.22,1.22C16.979,23.815,17.526,24.361,18.199,24.361"/>
						</g>
					</g>
					<g>
						<g>
							<defs>
								<rect id="SVGID_37_" x="10.473" y="18.682" width="28.464" height="12.189"/>
							</defs>
							<clipPath id="SVGID_38_">
								<use xlink:href="#SVGID_37_"  overflow="visible"/>
							</clipPath>
							<path clip-path="url(#SVGID_38_)" fill="#231F20" d="M21.453,21.122c0.673,0,1.22-0.547,1.22-1.22
								c0-0.674-0.546-1.22-1.22-1.22c-0.674,0-1.22,0.546-1.22,1.22C20.232,20.574,20.779,21.122,21.453,21.122"/>
						</g>
					</g>
					<g>
						<g>
							<defs>
								<rect id="SVGID_39_" x="10.473" y="18.682" width="28.464" height="12.189"/>
							</defs>
							<clipPath id="SVGID_40_">
								<use xlink:href="#SVGID_39_"  overflow="visible"/>
							</clipPath>
							<path clip-path="url(#SVGID_40_)" fill="#231F20" d="M18.199,21.122c0.674,0,1.22-0.547,1.22-1.22
								c0-0.674-0.546-1.22-1.22-1.22c-0.673,0-1.22,0.546-1.22,1.22C16.979,20.574,17.526,21.122,18.199,21.122"/>
						</g>
					</g>
					<g>
						<g>
							<defs>
								<rect id="SVGID_41_" x="10.473" y="18.682" width="28.464" height="12.189"/>
							</defs>
							<clipPath id="SVGID_42_">
								<use xlink:href="#SVGID_41_"  overflow="visible"/>
							</clipPath>
							<path clip-path="url(#SVGID_42_)" fill="#231F20" d="M27.959,27.494c0.674,0,1.221-0.545,1.221-1.219
								s-0.547-1.221-1.221-1.221s-1.221,0.547-1.221,1.221S27.285,27.494,27.959,27.494"/>
						</g>
					</g>
					<g>
						<g>
							<defs>
								<rect id="SVGID_43_" x="10.473" y="18.682" width="28.464" height="12.189"/>
							</defs>
							<clipPath id="SVGID_44_">
								<use xlink:href="#SVGID_43_"  overflow="visible"/>
							</clipPath>
							<path clip-path="url(#SVGID_44_)" fill="#231F20" d="M24.706,27.494c0.673,0,1.219-0.545,1.219-1.219
								s-0.546-1.221-1.219-1.221s-1.22,0.547-1.22,1.221S24.032,27.494,24.706,27.494"/>
						</g>
					</g>
					<g>
						<g>
							<defs>
								<rect id="SVGID_45_" x="10.473" y="18.682" width="28.464" height="12.189"/>
							</defs>
							<clipPath id="SVGID_46_">
								<use xlink:href="#SVGID_45_"  overflow="visible"/>
							</clipPath>
							<path clip-path="url(#SVGID_46_)" fill="#231F20" d="M27.959,24.361c0.674,0,1.221-0.546,1.221-1.22
								c0-0.673-0.547-1.22-1.221-1.22s-1.221,0.546-1.221,1.22C26.738,23.815,27.285,24.361,27.959,24.361"/>
						</g>
					</g>
					<g>
						<g>
							<defs>
								<rect id="SVGID_47_" x="10.473" y="18.682" width="28.464" height="12.189"/>
							</defs>
							<clipPath id="SVGID_48_">
								<use xlink:href="#SVGID_47_"  overflow="visible"/>
							</clipPath>
							<path clip-path="url(#SVGID_48_)" fill="#231F20" d="M24.706,24.361c0.673,0,1.219-0.546,1.219-1.22
								c0-0.673-0.546-1.22-1.219-1.22s-1.22,0.546-1.22,1.22C23.486,23.815,24.032,24.361,24.706,24.361"/>
						</g>
					</g>
					<g>
						<g>
							<defs>
								<rect id="SVGID_49_" x="10.473" y="18.682" width="28.464" height="12.189"/>
							</defs>
							<clipPath id="SVGID_50_">
								<use xlink:href="#SVGID_49_"  overflow="visible"/>
							</clipPath>
							<path clip-path="url(#SVGID_50_)" fill="#231F20" d="M27.959,21.122c0.674,0,1.221-0.547,1.221-1.22
								c0-0.674-0.547-1.22-1.221-1.22s-1.221,0.546-1.221,1.22C26.738,20.574,27.285,21.122,27.959,21.122"/>
						</g>
					</g>
					<g>
						<g>
							<defs>
								<rect id="SVGID_51_" x="10.473" y="18.682" width="28.464" height="12.189"/>
							</defs>
							<clipPath id="SVGID_52_">
								<use xlink:href="#SVGID_51_"  overflow="visible"/>
							</clipPath>
							<path clip-path="url(#SVGID_52_)" fill="#231F20" d="M31.211,25.054c-0.673,0-1.219,0.547-1.219,1.221
								s0.546,1.219,1.219,1.219c0.674,0,1.221-0.545,1.221-1.219S31.885,25.054,31.211,25.054"/>
						</g>
					</g>
					<g>
						<g>
							<defs>
								<rect id="SVGID_53_" x="10.473" y="18.682" width="28.464" height="12.189"/>
							</defs>
							<clipPath id="SVGID_54_">
								<use xlink:href="#SVGID_53_"  overflow="visible"/>
							</clipPath>
							<path clip-path="url(#SVGID_54_)" fill="#231F20" d="M31.211,21.921c-0.673,0-1.219,0.546-1.219,1.22
								c0,0.674,0.546,1.22,1.219,1.22c0.674,0,1.221-0.546,1.221-1.22C32.432,22.468,31.885,21.921,31.211,21.921"/>
						</g>
					</g>
					<g>
						<g>
							<defs>
								<rect id="SVGID_55_" x="10.473" y="18.682" width="28.464" height="12.189"/>
							</defs>
							<clipPath id="SVGID_56_">
								<use xlink:href="#SVGID_55_"  overflow="visible"/>
							</clipPath>
							<path clip-path="url(#SVGID_56_)" fill="#231F20" d="M31.211,18.682c-0.673,0-1.219,0.546-1.219,1.22
								c0,0.672,0.546,1.22,1.219,1.22c0.674,0,1.221-0.547,1.221-1.22C32.432,19.228,31.885,18.682,31.211,18.682"/>
						</g>
					</g>
					<g>
						<g>
							<defs>
								<rect id="SVGID_57_" x="10.473" y="18.682" width="28.464" height="12.189"/>
							</defs>
							<clipPath id="SVGID_58_">
								<use xlink:href="#SVGID_57_"  overflow="visible"/>
							</clipPath>
							<path clip-path="url(#SVGID_58_)" fill="#231F20" d="M24.706,21.122c0.673,0,1.219-0.547,1.219-1.22
								c0-0.674-0.546-1.22-1.219-1.22s-1.22,0.546-1.22,1.22C23.486,20.574,24.032,21.122,24.706,21.122"/>
						</g>
					</g>
					<g>
						<g>
							<defs>
								<rect id="SVGID_59_" x="10.473" y="18.682" width="28.464" height="12.189"/>
							</defs>
							<clipPath id="SVGID_60_">
								<use xlink:href="#SVGID_59_"  overflow="visible"/>
							</clipPath>
							<path clip-path="url(#SVGID_60_)" fill="#231F20" d="M37.719,21.122c0.672,0,1.219-0.547,1.219-1.22
								c0-0.674-0.547-1.22-1.219-1.22c-0.674,0-1.221,0.546-1.221,1.22C36.498,20.574,37.045,21.122,37.719,21.122"/>
						</g>
					</g>
					<g>
						<g>
							<defs>
								<rect id="SVGID_61_" x="10.473" y="18.682" width="28.464" height="12.189"/>
							</defs>
							<clipPath id="SVGID_62_">
								<use xlink:href="#SVGID_61_"  overflow="visible"/>
							</clipPath>
							<path clip-path="url(#SVGID_62_)" fill="#231F20" d="M34.465,21.122c0.674,0,1.221-0.547,1.221-1.22
								c0-0.674-0.547-1.22-1.221-1.22s-1.221,0.546-1.221,1.22C33.244,20.574,33.791,21.122,34.465,21.122"/>
						</g>
					</g>
				</g>
			</g>
			<path fill="#FFFFFF" d="M31.117,27.617H18.292c-0.724,0-1.312,0.547-1.312,1.221c0,0.672,0.588,1.219,1.312,1.219h12.825
				c0.727,0,1.314-0.547,1.314-1.219C32.432,28.164,31.844,27.617,31.117,27.617"/>
			<path fill="#FFFFFF" d="M14.946,27.617c-0.674,0-1.22,0.547-1.22,1.221c0,0.672,0.546,1.219,1.22,1.219
				c0.673,0,1.22-0.547,1.22-1.219C16.166,28.164,15.62,27.617,14.946,27.617"/>
			<path fill="#FFFFFF" d="M11.693,27.617c-0.674,0-1.22,0.547-1.22,1.221c0,0.672,0.546,1.219,1.22,1.219
				c0.673,0,1.22-0.547,1.22-1.219C12.913,28.164,12.367,27.617,11.693,27.617"/>
			<path fill="#FFFFFF" d="M37.719,27.617c-0.674,0-1.221,0.547-1.221,1.221c0,0.672,0.547,1.219,1.221,1.219
				c0.672,0,1.219-0.547,1.219-1.219C38.938,28.164,38.391,27.617,37.719,27.617"/>
			<path fill="#FFFFFF" d="M34.465,27.617c-0.674,0-1.221,0.547-1.221,1.221c0,0.672,0.547,1.219,1.221,1.219
				s1.221-0.547,1.221-1.219C35.686,28.164,35.139,27.617,34.465,27.617"/>
			<path fill="#FFFFFF" d="M14.946,24.24h-3.253c-0.674,0-1.22,0.548-1.22,1.221c0,0.674,0.546,1.221,1.22,1.221h3.253
				c0.673,0,1.22-0.547,1.22-1.221C16.166,24.788,15.62,24.24,14.946,24.24"/>
			<path fill="#FFFFFF" d="M37.719,24.24h-3.254c-0.674,0-1.221,0.548-1.221,1.221c0,0.674,0.547,1.221,1.221,1.221h3.254
				c0.672,0,1.219-0.547,1.219-1.221C38.938,24.788,38.391,24.24,37.719,24.24"/>
			<path fill="#FFFFFF" d="M14.946,21.108c-0.674,0-1.22,0.546-1.22,1.22c0,0.673,0.546,1.22,1.22,1.22
				c0.673,0,1.22-0.546,1.22-1.22C16.166,21.654,15.62,21.108,14.946,21.108"/>
			<path fill="#FFFFFF" d="M11.693,23.548c0.673,0,1.22-0.546,1.22-1.22c0-0.674-0.546-1.22-1.22-1.22
				c-0.674,0-1.22,0.546-1.22,1.22C10.473,23.001,11.02,23.548,11.693,23.548"/>
			<path fill="#FFFFFF" d="M37.719,21.108c-0.674,0-1.221,0.546-1.221,1.22c0,0.673,0.547,1.22,1.221,1.22
				c0.672,0,1.219-0.546,1.219-1.22C38.938,21.654,38.391,21.108,37.719,21.108"/>
			<path fill="#FFFFFF" d="M34.465,23.548c0.674,0,1.221-0.546,1.221-1.22c0-0.674-0.547-1.22-1.221-1.22s-1.221,0.546-1.221,1.22
				C33.244,23.001,33.791,23.548,34.465,23.548"/>
			<path fill="#FFFFFF" d="M14.946,17.869c-0.674,0-1.22,0.545-1.22,1.22c0,0.673,0.546,1.22,1.22,1.22
				c0.673,0,1.22-0.547,1.22-1.22C16.166,18.414,15.62,17.869,14.946,17.869"/>
			<path fill="#FFFFFF" d="M11.693,20.308c0.673,0,1.22-0.547,1.22-1.22c0-0.674-0.546-1.22-1.22-1.22
				c-0.674,0-1.22,0.545-1.22,1.22C10.473,19.761,11.02,20.308,11.693,20.308"/>
			<path fill="#FFFFFF" d="M21.453,26.682c0.673,0,1.22-0.547,1.22-1.221c0-0.673-0.546-1.221-1.22-1.221
				c-0.674,0-1.22,0.548-1.22,1.221C20.232,26.135,20.779,26.682,21.453,26.682"/>
			<path fill="#FFFFFF" d="M18.199,26.682c0.674,0,1.22-0.547,1.22-1.221c0-0.673-0.546-1.221-1.22-1.221
				c-0.673,0-1.22,0.548-1.22,1.221C16.979,26.135,17.526,26.682,18.199,26.682"/>
			<path fill="#FFFFFF" d="M21.453,23.548c0.673,0,1.22-0.546,1.22-1.22c0-0.674-0.546-1.22-1.22-1.22
				c-0.674,0-1.22,0.546-1.22,1.22C20.232,23.001,20.779,23.548,21.453,23.548"/>
			<path fill="#FFFFFF" d="M18.199,23.548c0.674,0,1.22-0.546,1.22-1.22c0-0.674-0.546-1.22-1.22-1.22
				c-0.673,0-1.22,0.546-1.22,1.22C16.979,23.001,17.526,23.548,18.199,23.548"/>
			<path fill="#FFFFFF" d="M21.453,20.308c0.673,0,1.22-0.547,1.22-1.22c0-0.674-0.546-1.22-1.22-1.22
				c-0.674,0-1.22,0.545-1.22,1.22C20.232,19.761,20.779,20.308,21.453,20.308"/>
			<path fill="#FFFFFF" d="M18.199,20.308c0.674,0,1.22-0.547,1.22-1.22c0-0.674-0.546-1.22-1.22-1.22
				c-0.673,0-1.22,0.545-1.22,1.22C16.979,19.761,17.526,20.308,18.199,20.308"/>
			<path fill="#FFFFFF" d="M27.959,26.682c0.674,0,1.221-0.547,1.221-1.221c0-0.673-0.547-1.221-1.221-1.221
				s-1.221,0.548-1.221,1.221C26.738,26.135,27.285,26.682,27.959,26.682"/>
			<path fill="#FFFFFF" d="M24.706,26.682c0.673,0,1.219-0.547,1.219-1.221c0-0.673-0.546-1.221-1.219-1.221s-1.22,0.548-1.22,1.221
				C23.486,26.135,24.032,26.682,24.706,26.682"/>
			<path fill="#FFFFFF" d="M27.959,23.548c0.674,0,1.221-0.546,1.221-1.22c0-0.674-0.547-1.22-1.221-1.22s-1.221,0.546-1.221,1.22
				C26.738,23.001,27.285,23.548,27.959,23.548"/>
			<path fill="#FFFFFF" d="M24.706,23.548c0.673,0,1.219-0.546,1.219-1.22c0-0.674-0.546-1.22-1.219-1.22s-1.22,0.546-1.22,1.22
				C23.486,23.001,24.032,23.548,24.706,23.548"/>
			<path fill="#FFFFFF" d="M27.959,20.308c0.674,0,1.221-0.547,1.221-1.22c0-0.674-0.547-1.22-1.221-1.22s-1.221,0.545-1.221,1.22
				C26.738,19.761,27.285,20.308,27.959,20.308"/>
			<path fill="#FFFFFF" d="M31.211,24.24c-0.673,0-1.219,0.548-1.219,1.221c0,0.674,0.546,1.221,1.219,1.221
				c0.674,0,1.221-0.547,1.221-1.221C32.432,24.788,31.885,24.24,31.211,24.24"/>
			<path fill="#FFFFFF" d="M31.211,21.108c-0.673,0-1.219,0.546-1.219,1.22c0,0.673,0.546,1.22,1.219,1.22
				c0.674,0,1.221-0.546,1.221-1.22C32.432,21.654,31.885,21.108,31.211,21.108"/>
			<path fill="#FFFFFF" d="M31.211,17.869c-0.673,0-1.219,0.545-1.219,1.22c0,0.673,0.546,1.22,1.219,1.22
				c0.674,0,1.221-0.547,1.221-1.22C32.432,18.414,31.885,17.869,31.211,17.869"/>
			<path fill="#FFFFFF" d="M24.706,20.308c0.673,0,1.219-0.547,1.219-1.22c0-0.674-0.546-1.22-1.219-1.22s-1.22,0.545-1.22,1.22
				C23.486,19.761,24.032,20.308,24.706,20.308"/>
			<path fill="#FFFFFF" d="M37.719,20.308c0.672,0,1.219-0.547,1.219-1.22c0-0.674-0.547-1.22-1.219-1.22
				c-0.674,0-1.221,0.545-1.221,1.22C36.498,19.761,37.045,20.308,37.719,20.308"/>
			<path fill="#FFFFFF" d="M34.465,20.308c0.674,0,1.221-0.547,1.221-1.22c0-0.674-0.547-1.22-1.221-1.22s-1.221,0.545-1.221,1.22
				C33.244,19.761,33.791,20.308,34.465,20.308"/>
		</g>
	</g>
	<g>
		<g>
			<g>
				<g>
					<path display="none" fill="#77B3D4" d="M183.422,121.238c0,17.673-14.326,32-32,32c-17.673,0-32-14.327-32-32
						c0-17.674,14.327-32,32-32C169.096,89.238,183.422,103.564,183.422,121.238"/>
				</g>
			</g>
		</g>
	</g>
</g>
</svg>
