<?xml version="1.0" encoding="utf-8"?>
<!-- Generator: Adobe Illustrator 16.0.0, SVG Export Plug-In . SVG Version: 6.00 Build 0)  -->
<!DOCTYPE svg PUBLIC "-//W3C//DTD SVG 1.1//EN" "http://www.w3.org/Graphics/SVG/1.1/DTD/svg11.dtd">
<svg version="1.1" id="Layer_1" xmlns="http://www.w3.org/2000/svg" xmlns:xlink="http://www.w3.org/1999/xlink" x="0px" y="0px"
	 width="31.202px" height="32.058px" viewBox="0 0 31.202 32.058" enable-background="new 0 0 31.202 32.058" xml:space="preserve">
<polyline fill="none" stroke="#FFFFFF" stroke-width="3.1854" stroke-linecap="round" stroke-linejoin="round" stroke-miterlimit="10" points="
	4.208,11.655 15.685,4.179 27.16,11.655 "/>
<path fill="#FFFFFF" d="M22.006,12.468H9.362c-0.967,0-1.75,0.783-1.75,1.75v12.645c0,0.967,0.783,1.75,1.75,1.75h2.943
	c-0.02-0.085-0.041-0.169-0.041-0.262v-6.861c0-0.524,0.331-0.949,0.74-0.949h5.357c0.412,0,0.742,0.425,0.742,0.949v6.861
	c0,0.093-0.021,0.177-0.041,0.262h2.943c0.967,0,1.75-0.783,1.75-1.75V14.218C23.756,13.251,22.973,12.468,22.006,12.468z"/>
</svg>
