<?xml version="1.0" encoding="utf-8"?>
<!-- Generator: Adobe Illustrator 16.0.0, SVG Export Plug-In . SVG Version: 6.00 Build 0)  -->
<!DOCTYPE svg PUBLIC "-//W3C//DTD SVG 1.1//EN" "http://www.w3.org/Graphics/SVG/1.1/DTD/svg11.dtd">
<svg version="1.1" xmlns="http://www.w3.org/2000/svg" xmlns:xlink="http://www.w3.org/1999/xlink" x="0px" y="0px"
	 width="49.375px" height="49.375px" viewBox="0 0 49.375 49.375" enable-background="new 0 0 49.375 49.375" xml:space="preserve">
<g id="Layer_1">
	<circle fill="#02B2D3" cx="24.422" cy="24.24" r="23"/>
</g>
<g id="Layer_9">
	<rect x="1.021" y="0.452" fill="none" width="46.077" height="46.08"/>
	<rect x="1.021" y="0.452" fill="none" width="46.077" height="46.08"/>
	<rect x="1.021" y="0.452" fill="none" width="46.077" height="46.08"/>
	<g opacity="0.2">
		<g>
			<defs>
				<rect id="SVGID_1_" x="8.748" y="10.075" width="29.71" height="28.538"/>
			</defs>
			<clipPath id="SVGID_2_">
				<use xlink:href="#SVGID_1_"  overflow="visible"/>
			</clipPath>
		</g>
	</g>
	<rect x="1.021" y="0.452" fill="none" width="46.077" height="46.08"/>
	<g opacity="0.2">
		<g>
			<defs>
				<rect id="SVGID_3_" x="22.621" y="9.092" width="2.879" height="34.561"/>
			</defs>
			<clipPath id="SVGID_4_">
				<use xlink:href="#SVGID_3_"  overflow="visible"/>
			</clipPath>
			<path clip-path="url(#SVGID_4_)" fill="#231F20" d="M24.061,43.652c-0.794,0-1.439-0.645-1.439-1.439V10.531
				c0-0.794,0.645-1.439,1.439-1.439S25.5,9.737,25.5,10.531v31.682C25.5,43.008,24.855,43.652,24.061,43.652"/>
		</g>
	</g>
	<g>
		<defs>
			<rect id="SVGID_5_" x="1.021" y="0.452" width="46.077" height="46.08"/>
		</defs>
		<clipPath id="SVGID_6_">
			<use xlink:href="#SVGID_5_"  overflow="visible"/>
		</clipPath>
		
			<line clip-path="url(#SVGID_6_)" fill="none" stroke="#F5CF87" stroke-width="2.88" stroke-linecap="round" stroke-miterlimit="10" x1="24.061" y1="9.092" x2="24.061" y2="40.772"/>
	</g>
	<rect x="1.021" y="0.452" fill="none" width="46.077" height="46.08"/>
	<g opacity="0.2">
		<g>
			<path fill="#231F20" d="M14.329,11.972c-0.299,0-0.722,0.177-0.941,0.394l-3.564,3.533c-0.219,0.216-0.219,0.571,0,0.788
				l3.564,3.532c0.219,0.217,0.642,0.394,0.941,0.394h14.944c0.299,0,0.545-0.259,0.545-0.576v-7.489
				c0-0.316-0.246-0.575-0.545-0.575H14.329L14.329,11.972z"/>
		</g>
	</g>
	<g>
		<defs>
			<rect id="SVGID_7_" x="1.021" y="0.452" width="46.077" height="46.08"/>
		</defs>
		<clipPath id="SVGID_8_">
			<use xlink:href="#SVGID_7_"  overflow="visible"/>
		</clipPath>
		<g clip-path="url(#SVGID_8_)">
			<g opacity="0.2">
				<g>
					<defs>
						<rect id="SVGID_9_" x="18.301" y="22.052" width="23.037" height="8.641"/>
					</defs>
					<clipPath id="SVGID_10_">
						<use xlink:href="#SVGID_9_"  overflow="visible"/>
					</clipPath>
					<path clip-path="url(#SVGID_10_)" fill="#231F20" d="M36.67,30.692c0.299,0,0.722-0.178,0.941-0.394l3.562-3.533
						c0.22-0.217,0.22-0.57,0-0.787l-3.562-3.533c-0.22-0.217-0.643-0.394-0.941-0.394H18.845c-0.3,0-0.544,0.259-0.544,0.575v7.49
						c0,0.314,0.245,0.575,0.544,0.575H36.67L36.67,30.692z"/>
				</g>
			</g>
			<g>
				<defs>
					<rect id="SVGID_11_" x="1.021" y="0.452" width="46.077" height="46.08"/>
				</defs>
				<clipPath id="SVGID_12_">
					<use xlink:href="#SVGID_11_"  overflow="visible"/>
				</clipPath>
				<path clip-path="url(#SVGID_12_)" fill="#4F5D73" d="M14.329,10.531c-0.299,0-0.722,0.178-0.941,0.394l-3.564,3.533
					c-0.219,0.217-0.219,0.571,0,0.788l3.564,3.532c0.219,0.217,0.642,0.394,0.941,0.394h14.944c0.299,0,0.545-0.259,0.545-0.575
					v-7.49c0-0.316-0.246-0.575-0.545-0.575H14.329L14.329,10.531z"/>
			</g>
			<g>
				<defs>
					<rect id="SVGID_13_" x="1.021" y="0.452" width="46.077" height="46.08"/>
				</defs>
				<clipPath id="SVGID_14_">
					<use xlink:href="#SVGID_13_"  overflow="visible"/>
				</clipPath>
				<path clip-path="url(#SVGID_14_)" fill="#FFFFFF" d="M36.67,29.252c0.299,0,0.722-0.177,0.941-0.393l3.562-3.533
					c0.22-0.217,0.22-0.571,0-0.789l-3.562-3.532c-0.22-0.217-0.643-0.394-0.941-0.394H18.845c-0.3,0-0.544,0.259-0.544,0.575v7.491
					c0,0.314,0.245,0.574,0.544,0.574H36.67L36.67,29.252z"/>
			</g>
		</g>
	</g>
</g>
</svg>
