<?xml version="1.0" encoding="utf-8"?>
<!-- Generator: Adobe Illustrator 16.0.0, SVG Export Plug-In . SVG Version: 6.00 Build 0)  -->
<!DOCTYPE svg PUBLIC "-//W3C//DTD SVG 1.1//EN" "http://www.w3.org/Graphics/SVG/1.1/DTD/svg11.dtd">
<svg version="1.1" xmlns="http://www.w3.org/2000/svg" xmlns:xlink="http://www.w3.org/1999/xlink" x="0px" y="0px"
	 width="49.375px" height="49.375px" viewBox="0 0 49.375 49.375" enable-background="new 0 0 49.375 49.375" xml:space="preserve">
<g id="Layer_1">
	<circle fill="#02B2D3" cx="24.422" cy="24.24" r="23"/>
</g>
<g id="pagina_titel">
	<g>
		<g>
			<g opacity="0.2">
				<g>
					<defs>
						<rect id="SVGID_1_" x="9.789" y="11.997" width="29.267" height="27.803"/>
					</defs>
					<clipPath id="SVGID_2_">
						<use xlink:href="#SVGID_1_"  overflow="visible"/>
					</clipPath>
					<path clip-path="url(#SVGID_2_)" fill="#231F20" d="M39.056,36.875c0,1.615-1.311,2.925-2.927,2.925H12.715
						c-1.616,0-2.926-1.31-2.926-2.925V14.923c0-1.616,1.31-2.927,2.926-2.927h23.414c1.616,0,2.927,1.311,2.927,2.927V36.875z"/>
				</g>
			</g>
			<path fill="#FFFFFF" d="M9.789,17.484V35.41c0,1.616,1.31,2.928,2.926,2.928h23.414c1.616,0,2.927-1.312,2.927-2.928V17.484
				H9.789z"/>
			<rect x="12.715" y="25.167" fill="#E0E0D1" width="8.78" height="10.244"/>
			<rect x="24.422" y="25.167" fill="#E0E0D1" width="11.707" height="1.464"/>
			<rect x="24.422" y="28.095" fill="#E0E0D1" width="11.707" height="1.463"/>
			<rect x="24.422" y="31.021" fill="#E0E0D1" width="11.707" height="1.464"/>
			<rect x="24.422" y="33.946" fill="#E0E0D1" width="11.707" height="1.464"/>
		</g>
	</g>
	<g opacity="0.2">
		<g>
			<defs>
				<rect id="SVGID_3_" x="9.789" y="11.997" width="29.267" height="10.244"/>
			</defs>
			<clipPath id="SVGID_4_">
				<use xlink:href="#SVGID_3_"  overflow="visible"/>
			</clipPath>
			<path clip-path="url(#SVGID_4_)" fill="#4F5D73" d="M39.056,14.923c0-1.616-1.311-2.927-2.927-2.927H12.715
				c-1.616,0-2.926,1.311-2.926,2.927v7.317h29.267V14.923z"/>
		</g>
	</g>
	<path fill="#E0E0D1" d="M39.056,13.46c0-1.616-1.311-2.927-2.927-2.927H12.715c-1.616,0-2.926,1.311-2.926,2.927v4.39h29.267V13.46
		z"/>
	<path fill="#E0995E" d="M19.3,14.191c0-0.808-0.655-1.463-1.463-1.463c-0.809,0-1.464,0.655-1.464,1.463
		c0,0.809,0.655,1.463,1.464,1.463C18.646,15.655,19.3,15,19.3,14.191"/>
	<path fill="#76C2AF" d="M23.69,14.191c0-0.808-0.655-1.463-1.463-1.463c-0.809,0-1.462,0.655-1.462,1.463
		c0,0.809,0.653,1.463,1.462,1.463C23.035,15.655,23.69,15,23.69,14.191"/>
	<path fill="#C75C5C" d="M14.911,14.191c0-0.808-0.655-1.463-1.463-1.463s-1.463,0.655-1.463,1.463c0,0.809,0.655,1.463,1.463,1.463
		S14.911,15,14.911,14.191"/>
	<rect x="12.19" y="19.051" fill="#4F5D73" width="24.073" height="2.081"/>
</g>
</svg>
