<?xml version="1.0" encoding="UTF-8" standalone="no"?>
<svg xmlns:rdf="http://www.w3.org/1999/02/22-rdf-syntax-ns#" xmlns="http://www.w3.org/2000/svg" enable-background="new 0 0 49.375 49.375" xml:space="preserve" version="1.1" y="0px" x="0px" xmlns:cc="http://creativecommons.org/ns#" xmlns:dc="http://purl.org/dc/elements/1.1/" viewBox="0 0 49.375 49.375"><g transform="translate(.26550 .44750)"><circle cy="24.24" cx="24.422" r="23" fill="#006B6B"/></g><path fill="#0994af" d="m30.63 17.759c-1.6012 1.3629-3.9744 1.3334-5.3021-0.0666-1.3273-1.3992-1.1059-3.6385 0.49492-5.0017 1.601-1.3628 3.9748-1.3332 5.3021 0.0657 1.3272 1.3998 1.106 3.639-0.49492 5.0025zm-7.3144 23.486c-3.5302 1.2405-6.4404-0.18208-5.8566-3.5723 0.58402-3.391 3.9339-10.65 4.4118-12.023 0.47753-1.3728-0.43824-1.7491-1.4198-1.1905-0.56613 0.32662-1.4076 0.98122-2.1299 1.6174-0.20035-0.40332-0.48203-0.86421-0.69352-1.3056 1.1787-1.1812 3.149-2.7648 5.4815-3.3388 2.7868-0.68788 7.4448 0.41171 5.4428 5.7386-1.4296 3.7967-2.4406 6.4166-3.0777 8.3678-0.6367 1.9519 0.11951 2.3611 1.2342 1.6006 0.87084-0.59453 1.7985-1.4033 2.4785-2.0305 0.31472 0.51132 0.41534 0.67438 0.72656 1.2619-1.1804 1.21-4.2682 4.0415-6.5978 4.8745z"/><path fill="#fff" d="m30.63 15.759c-1.6012 1.3629-3.9744 1.3334-5.3021-0.0666-1.3273-1.3992-1.1059-3.6385 0.49492-5.0017 1.601-1.3628 3.9748-1.3332 5.3021 0.0657 1.3272 1.3998 1.106 3.639-0.49492 5.0025zm-7.3144 23.486c-3.5302 1.2405-6.4404-0.18208-5.8566-3.5723 0.58402-3.391 3.9339-10.65 4.4118-12.023 0.47753-1.3728-0.43824-1.7491-1.4198-1.1905-0.56613 0.32662-1.4076 0.98122-2.1299 1.6174-0.20035-0.40332-0.48203-0.86421-0.69352-1.3056 1.1787-1.1812 3.149-2.7648 5.4815-3.3388 2.7868-0.68788 7.4448 0.41171 5.4428 5.7386-1.4296 3.7967-2.4406 6.4166-3.0777 8.3678-0.6367 1.9519 0.11951 2.3611 1.2342 1.6006 0.87084-0.59453 1.7985-1.4033 2.4785-2.0305 0.31472 0.51132 0.41534 0.67438 0.72656 1.2619-1.1804 1.21-4.2682 4.0415-6.5978 4.8745z"/></svg>
