<?xml version="1.0" encoding="UTF-8" standalone="no"?>
<!-- Generator: Adobe Illustrator 16.0.0, SVG Export Plug-In . SVG Version: 6.00 Build 0)  -->

<svg
   xmlns:dc="http://purl.org/dc/elements/1.1/"
   xmlns:cc="http://creativecommons.org/ns#"
   xmlns:rdf="http://www.w3.org/1999/02/22-rdf-syntax-ns#"
   xmlns:svg="http://www.w3.org/2000/svg"
   xmlns="http://www.w3.org/2000/svg"
   xmlns:sodipodi="http://sodipodi.sourceforge.net/DTD/sodipodi-0.dtd"
   xmlns:inkscape="http://www.inkscape.org/namespaces/inkscape"
   version="1.1"
   x="0px"
   y="0px"
   width="49.375px"
   height="49.375px"
   viewBox="0 0 49.375 49.375"
   enable-background="new 0 0 49.375 49.375"
   xml:space="preserve"
   id="svg2"
   inkscape:version="0.91 r13725"
   sodipodi:docname="icon-rating.svg"><metadata
     id="metadata92"><rdf:RDF><cc:Work
         rdf:about=""><dc:format>image/svg+xml</dc:format><dc:type
           rdf:resource="http://purl.org/dc/dcmitype/StillImage" /><dc:title></dc:title></cc:Work></rdf:RDF></metadata><defs
     id="defs90" /><sodipodi:namedview
     pagecolor="#ffffff"
     bordercolor="#666666"
     borderopacity="1"
     objecttolerance="10"
     gridtolerance="10"
     guidetolerance="10"
     inkscape:pageopacity="0"
     inkscape:pageshadow="2"
     inkscape:window-width="1920"
     inkscape:window-height="1017"
     id="namedview88"
     showgrid="false"
     inkscape:zoom="9.5594937"
     inkscape:cx="24.6875"
     inkscape:cy="27.646262"
     inkscape:window-x="-8"
     inkscape:window-y="-8"
     inkscape:window-maximized="1"
     inkscape:current-layer="g5388"
     showguides="false" /><g
     id="Layer_1"><circle
       fill="#02B2D3"
       cx="24.422"
       cy="24.24"
       r="23"
       id="circle5" /></g><g
     id="g5153"
     transform="matrix(0.74632529,0,0,0.74632529,-31.497746,42.299245)"><g
       id="g5388"><path
         sodipodi:type="star"
         style="opacity:1;fill:#1b95b2;fill-opacity:1;fill-rule:evenodd;stroke:none;stroke-width:2.61602187;stroke-miterlimit:4;stroke-dasharray:none;stroke-opacity:0.33707868"
         id="path5120-60"
         sodipodi:sides="5"
         sodipodi:cx="19.108896"
         sodipodi:cy="31.771029"
         sodipodi:r1="19.988298"
         sodipodi:r2="8.0569639"
         sodipodi:arg1="0.94677327"
         sodipodi:arg2="1.5750918"
         inkscape:flatsided="false"
         inkscape:rounded="0.0328633"
         inkscape:randomized="0"
         d="M 30.788154,47.992219 C 30.407355,48.266394 19.543516,39.829934 19.074288,39.827918 18.605059,39.825903 7.6691453,48.168722 7.2907163,47.891286 6.9122872,47.61385 11.578727,34.674715 11.435644,34.22783 11.292562,33.780944 -0.02131443,25.958345 0.12560205,25.512705 c 0.14691648,-0.44564 13.89477395,-0.006 14.27557195,-0.280179 0.380799,-0.274175 4.324353,-13.451627 4.793581,-13.449611 0.469229,0.002 4.299432,13.212859 4.677861,13.490295 0.378429,0.277436 14.129556,-0.04408 14.272638,0.402808 0.143083,0.446886 -11.237578,8.172001 -11.384495,8.617641 -0.146916,0.44564 4.408193,13.424385 4.027395,13.69856 z"
         inkscape:transform-center-x="-0.026480995"
         inkscape:transform-center-y="-1.9737707"
         transform="matrix(0.99960008,0,0,1.0497712,59.238709,-55.271885)" /><path
         style="opacity:1;fill:#dfdfd0;fill-opacity:1;fill-rule:evenodd;stroke:none;stroke-width:1.9540143;stroke-miterlimit:4;stroke-dasharray:none;stroke-opacity:1"
         inkscape:transform-center-x="-0.027141125"
         inkscape:transform-center-y="-2.0229388"
         d="m 75.015216,-14.588163 c 0,0 -11.888956,8.9740492 -12.276656,8.6755498 -0.387701,-0.2984992 4.393069,-14.2199908 4.24648,-14.7008028 -0.146587,-0.480814 -11.737659,-8.897316 -11.587142,-9.37679 0.150515,-0.479472 14.235201,-0.0064 14.625329,-0.301449 0.390129,-0.294991 4.911025,-14.470724 4.911025,-14.470724 z"
         id="path5120-6"
         inkscape:connector-curvature="0"
         sodipodi:nodetypes="csssscc" /><path
         style="opacity:1;fill:#ffffff;fill-opacity:1;fill-rule:evenodd;stroke:none;stroke-width:1.9540143;stroke-miterlimit:4;stroke-dasharray:none;stroke-opacity:1"
         inkscape:transform-center-x="0.027143122"
         inkscape:transform-center-y="-2.0229387"
         d="m 74.648909,-14.588162 c 0,0 12.093346,8.974048 12.481041,8.6755489 0.387704,-0.2984991 -4.393067,-14.2199899 -4.246477,-14.7008029 0.146581,-0.480813 11.737653,-8.897313 11.587134,-9.376787 -0.150508,-0.479473 -14.235193,-0.0064 -14.625319,-0.30145 -0.390136,-0.294991 -4.911036,-14.470722 -4.911036,-14.470722 z"
         id="path5120-6-0"
         inkscape:connector-curvature="0"
         sodipodi:nodetypes="csssscc" /><path
         sodipodi:type="star"
         style="opacity:1;fill:none;fill-opacity:1;fill-rule:evenodd;stroke:none;stroke-width:2.61602186;stroke-miterlimit:4;stroke-dasharray:none;stroke-opacity:0.98818898"
         id="path5120"
         sodipodi:sides="5"
         sodipodi:cx="19.108896"
         sodipodi:cy="31.771029"
         sodipodi:r1="19.988298"
         sodipodi:r2="8.0569639"
         sodipodi:arg1="0.94677327"
         sodipodi:arg2="1.5750918"
         inkscape:flatsided="false"
         inkscape:rounded="0.0328633"
         inkscape:randomized="0"
         d="M 30.788154,47.992219 C 30.407355,48.266394 19.543516,39.829934 19.074288,39.827918 18.605059,39.825903 7.6691453,48.168722 7.2907163,47.891286 6.9122872,47.61385 11.578727,34.674715 11.435644,34.22783 11.292562,33.780944 -0.02131443,25.958345 0.12560205,25.512705 c 0.14691648,-0.44564 13.89477395,-0.006 14.27557195,-0.280179 0.380799,-0.274175 4.324353,-13.451627 4.793581,-13.449611 0.469229,0.002 4.299432,13.212859 4.677861,13.490295 0.378429,0.277436 14.129556,-0.04408 14.272638,0.402808 0.143083,0.446886 -11.237578,8.172001 -11.384495,8.617641 -0.146916,0.44564 4.408193,13.424385 4.027395,13.69856 z"
         inkscape:transform-center-x="-0.026480995"
         inkscape:transform-center-y="-1.9737707"
         transform="matrix(0.99960008,0,0,1.0497712,55.675632,-57.068374)" /></g></g></svg>