<?xml version="1.0" encoding="utf-8"?>
<!-- Generator: Adobe Illustrator 16.0.0, SVG Export Plug-In . SVG Version: 6.00 Build 0)  -->
<!DOCTYPE svg PUBLIC "-//W3C//DTD SVG 1.1//EN" "http://www.w3.org/Graphics/SVG/1.1/DTD/svg11.dtd">
<svg version="1.1" xmlns="http://www.w3.org/2000/svg" xmlns:xlink="http://www.w3.org/1999/xlink" x="0px" y="0px"
	 width="49.375px" height="49.375px" viewBox="0 0 49.375 49.375" enable-background="new 0 0 49.375 49.375" xml:space="preserve">
<g id="Layer_1">
	<circle fill="#02B2D3" cx="24.422" cy="24.24" r="23"/>
</g>
<g id="koppen">
	<g>
		<g>
			<g opacity="0.2">
				<g>
					<defs>
						<rect id="SVGID_1_" x="8.688" y="22.584" width="32" height="19.2"/>
					</defs>
					<clipPath id="SVGID_2_">
						<use xlink:href="#SVGID_1_"  overflow="visible"/>
					</clipPath>
					<path clip-path="url(#SVGID_2_)" fill="#231F20" d="M26.089,41.437c-0.774,0.464-2.03,0.464-2.804,0L9.268,33.025
						c-0.773-0.464-0.773-1.218,0-1.683l14.018-8.411c0.773-0.465,2.029-0.465,2.804,0l14.017,8.411
						c0.775,0.465,0.775,1.219,0,1.683L26.089,41.437z"/>
				</g>
			</g>
			<path fill="#77B3D4" d="M26.089,39.837c-0.774,0.463-2.03,0.463-2.804,0L9.268,31.426c-0.773-0.465-0.773-1.218,0-1.683
				l14.018-8.411c0.773-0.465,2.029-0.465,2.804,0l14.017,8.411c0.775,0.465,0.775,1.218,0,1.683L26.089,39.837z"/>
			<g opacity="0.2">
				<g>
					<defs>
						<rect id="SVGID_3_" x="8.688" y="16.184" width="32" height="19.201"/>
					</defs>
					<clipPath id="SVGID_4_">
						<use xlink:href="#SVGID_3_"  overflow="visible"/>
					</clipPath>
					<path clip-path="url(#SVGID_4_)" fill="#231F20" d="M26.089,35.036c-0.774,0.465-2.03,0.465-2.804,0l-14.018-8.41
						c-0.773-0.465-0.773-1.218,0-1.684l14.018-8.41c0.773-0.465,2.029-0.465,2.804,0l14.017,8.41c0.775,0.466,0.775,1.219,0,1.684
						L26.089,35.036z"/>
				</g>
			</g>
			<path fill="#76C2AF" d="M26.089,33.437c-0.774,0.464-2.03,0.464-2.804,0L9.268,25.025c-0.773-0.464-0.773-1.218,0-1.682
				l14.018-8.411c0.773-0.465,2.029-0.465,2.804,0l14.017,8.411c0.775,0.464,0.775,1.218,0,1.682L26.089,33.437z"/>
			<g opacity="0.2">
				<g>
					<defs>
						<rect id="SVGID_5_" x="8.688" y="9.784" width="32" height="19.201"/>
					</defs>
					<clipPath id="SVGID_6_">
						<use xlink:href="#SVGID_5_"  overflow="visible"/>
					</clipPath>
					<path clip-path="url(#SVGID_6_)" fill="#231F20" d="M26.089,28.636c-0.774,0.465-2.03,0.465-2.804,0L9.268,20.225
						c-0.773-0.465-0.773-1.218,0-1.682l14.018-8.411c0.773-0.465,2.029-0.465,2.804,0l14.017,8.411
						c0.775,0.464,0.775,1.217,0,1.682L26.089,28.636z"/>
				</g>
			</g>
			<path fill="#4F5D73" d="M26.089,27.036c-0.774,0.465-2.03,0.465-2.804,0L9.268,18.625c-0.773-0.464-0.773-1.218,0-1.682
				l14.018-8.411c0.773-0.465,2.029-0.465,2.804,0l14.017,8.411c0.775,0.464,0.775,1.218,0,1.682L26.089,27.036z"/>
		</g>
	</g>
	
		<text transform="matrix(0.95 0.5803 -0.8912 0.4537 15.165 15.2432)" fill="#76C2AF" font-family="'MuseoSans-700'" font-size="10.0664">H1</text>
</g>
</svg>
