<?xml version="1.0" encoding="utf-8"?>
<!-- Generator: Adobe Illustrator 16.0.0, SVG Export Plug-In . SVG Version: 6.00 Build 0)  -->
<!DOCTYPE svg PUBLIC "-//W3C//DTD SVG 1.1//EN" "http://www.w3.org/Graphics/SVG/1.1/DTD/svg11.dtd">
<svg version="1.1" xmlns="http://www.w3.org/2000/svg" xmlns:xlink="http://www.w3.org/1999/xlink" x="0px" y="0px"
	 width="49.375px" height="49.375px" viewBox="0 0 49.375 49.375" enable-background="new 0 0 49.375 49.375" xml:space="preserve">
<g id="Layer_1">
	<circle fill="#02B2D3" cx="24.422" cy="24.24" r="23"/>
</g>
<g id="Layer_7_copy">
	<g>
		<g>
			<g opacity="0.2">
				<g>
					<defs>
						<rect id="SVGID_1_" x="10.137" y="11.802" width="28.571" height="28.569"/>
					</defs>
					<clipPath id="SVGID_2_">
						<use xlink:href="#SVGID_1_"  overflow="visible"/>
					</clipPath>
					<polygon clip-path="url(#SVGID_2_)" fill="#231F20" points="35.851,20.373 35.851,14.659 12.994,14.659 12.994,20.373 
						12.994,37.514 35.851,37.514 					"/>
					<path clip-path="url(#SVGID_2_)" fill="#231F20" d="M35.851,11.802H12.994c-1.578,0-2.857,1.279-2.857,2.857v5.714v17.141
						c0,1.578,1.279,2.857,2.857,2.857h22.856c1.578,0,2.857-1.279,2.857-2.857V20.373v-5.714
						C38.708,13.081,37.429,11.802,35.851,11.802"/>
				</g>
			</g>
			<path fill="#77B3D4" d="M12.994,37.514c-0.789,0-1.429-0.641-1.429-1.429V13.23c0-0.788,0.64-1.428,1.429-1.428h22.856
				c0.788,0,1.429,0.64,1.429,1.428v22.855c0,0.788-0.641,1.429-1.429,1.429H12.994z"/>
			<path fill="#FFFFFF" d="M35.851,13.23v5.714v17.141H12.994V18.944V13.23H35.851 M35.851,10.373H12.994
				c-1.578,0-2.857,1.279-2.857,2.857v5.714v17.141c0,1.578,1.279,2.857,2.857,2.857h22.856c1.578,0,2.857-1.279,2.857-2.857V18.944
				V13.23C38.708,11.652,37.429,10.373,35.851,10.373"/>
			<rect x="12.994" y="33.229" fill="#FFFFFF" width="22.856" height="2.856"/>
			<path fill="#4F5D73" d="M11.559,33.229h24.925v-2.087c0,0-1.219-2.127-2.348-3.459c-0.84-0.991-2.094-1.271-3.188-0.055
				l-1.967,1.889l-4.285-5.447c-1.596-2.029-4.207-2.029-5.803,0L11.559,33.229z"/>
			<path fill="#F5CF87" d="M32.279,18.944c0,1.184-0.959,2.143-2.143,2.143s-2.143-0.959-2.143-2.143
				c0-1.184,0.959-2.143,2.143-2.143S32.279,17.761,32.279,18.944"/>
			<path fill="#FFFFFF" d="M35.851,13.23v5.714v17.141H12.994V18.944V13.23H35.851 M35.851,10.373H12.994
				c-1.578,0-2.857,1.279-2.857,2.857v5.714v17.141c0,1.578,1.279,2.857,2.857,2.857h22.856c1.578,0,2.857-1.279,2.857-2.857V18.944
				V13.23C38.708,11.652,37.429,10.373,35.851,10.373"/>
		</g>
	</g>
</g>
</svg>
