<?xml version="1.0" encoding="utf-8"?>
<!-- Generator: Adobe Illustrator 16.0.0, SVG Export Plug-In . SVG Version: 6.00 Build 0)  -->
<!DOCTYPE svg PUBLIC "-//W3C//DTD SVG 1.1//EN" "http://www.w3.org/Graphics/SVG/1.1/DTD/svg11.dtd">
<svg version="1.1" xmlns="http://www.w3.org/2000/svg" xmlns:xlink="http://www.w3.org/1999/xlink" x="0px" y="0px"
	 width="49.375px" height="49.375px" viewBox="0 0 49.375 49.375" enable-background="new 0 0 49.375 49.375" xml:space="preserve">
<g id="Layer_1">
	<circle fill="#02B2D3" cx="24.422" cy="24.24" r="23"/>
</g>
<g id="linkjes_1_" display="none">
	<g display="inline" opacity="0.15">
		<path fill="#221E20" d="M24.422,43.16c-0.827,0-1.497-0.67-1.497-1.497V8.729c0-0.827,0.67-1.497,1.497-1.497
			c0.826,0,1.496,0.67,1.496,1.497v32.934C25.918,42.49,25.248,43.16,24.422,43.16z"/>
	</g>
	<g display="inline">
		
			<line fill="none" stroke="#F5CE86" stroke-width="2.994" stroke-linecap="round" stroke-miterlimit="10" x1="24.485" y1="7.797" x2="24.485" y2="40.73"/>
	</g>
	<g display="inline">
		<g>
			<g opacity="0.2">
				<g>
					<path fill="#221E20" d="M37.594,29.971c0.311,0,0.75-0.186,0.979-0.41l3.704-3.676c0.229-0.223,0.229-0.59,0-0.817
						l-3.704-3.671c-0.229-0.225-0.668-0.41-0.979-0.41h-18.53c-0.312,0-0.566,0.269-0.566,0.598v7.786c0,0.326,0.254,0.6,0.566,0.6
						H37.594L37.594,29.971z"/>
				</g>
			</g>
			<g opacity="0.15">
				<path fill="#221E20" d="M14.37,10.378c-0.312,0-0.751,0.184-0.979,0.409L9.685,14.46c-0.228,0.225-0.228,0.593,0,0.818
					l3.706,3.672c0.228,0.226,0.667,0.41,0.979,0.41h15.534c0.312,0,0.567-0.269,0.567-0.598v-7.787
					c0-0.329-0.256-0.597-0.567-0.597H14.37L14.37,10.378z"/>
			</g>
			<g>
				<path fill="#EA5A74" d="M37.594,28.756c0.311,0,0.75-0.184,0.979-0.41l3.704-3.671c0.229-0.226,0.229-0.593,0-0.82l-3.704-3.672
					c-0.229-0.225-0.668-0.409-0.979-0.409h-18.53c-0.312,0-0.566,0.269-0.566,0.597v7.787c0,0.326,0.254,0.598,0.566,0.598H37.594
					L37.594,28.756z"/>
			</g>
			<g>
				<path fill="#4F5D73" d="M14.37,9.294c-0.312,0-0.751,0.184-0.979,0.409l-3.706,3.673c-0.228,0.225-0.228,0.593,0,0.818
					l3.706,3.672c0.228,0.226,0.667,0.41,0.979,0.41h15.534c0.312,0,0.567-0.269,0.567-0.598V9.892c0-0.329-0.256-0.597-0.567-0.597
					H14.37L14.37,9.294z"/>
			</g>
		</g>
	</g>
	<g id="Layer_7" display="inline">
	</g>
</g>
<g id="Layer_8" display="none">
	<g display="inline" opacity="0.15">
		<path fill="#221E20" d="M20.539,22.368c0.315-0.338,0.662-0.647,1.036-0.927c0.389-0.289,0.809-0.542,1.254-0.756
			c0.389-0.187,0.798-0.345,1.226-0.468l7.018-2.002c0.429-0.123-0.857,3.158-0.964,3.529l-3.367,0.962l-1.091,0.312l-0.737,0.209
			c-0.14,0.04-0.276,0.088-0.409,0.14c-0.468,0.183-0.891,0.437-1.262,0.743c-0.26,0.217-0.494,0.46-0.698,0.726
			c-0.196,0.256-0.365,0.532-0.505,0.819c-0.471,0.979-0.601,2.124-0.28,3.246c0.321,1.124,1.037,2.029,1.953,2.61
			c-0.209,0.245-0.452,0.462-0.724,0.646c-0.313,0.211-0.66,0.38-1.042,0.488l-0.261,0.074l-1.048,0.3
			c-0.864-0.886-1.525-1.99-1.889-3.261c-0.362-1.269-0.382-2.555-0.118-3.761c0.081-0.363,0.187-0.721,0.317-1.068
			c0.147-0.389,0.326-0.766,0.532-1.126C19.777,23.288,20.131,22.805,20.539,22.368z"/>
		<path fill="#221E20" d="M26.582,34.409c-0.312,0.338-0.66,0.647-1.036,0.926c-0.389,0.289-0.809,0.541-1.255,0.756
			c-0.389,0.188-0.796,0.347-1.226,0.469l-7.02,2.006c-4.094,1.17-8.377-1.21-9.548-5.307c-1.168-4.094,1.211-8.374,5.306-9.542
			l7.02-2.007c0.429-0.122,0.859-0.203,1.289-0.249c-0.359,0.35-0.682,0.732-0.97,1.137c-0.348,0.487-0.647,1.008-0.888,1.556
			c-0.156,0.353-0.288,0.717-0.395,1.09l-5.195,1.482c-2.433,0.695-3.85,3.239-3.153,5.674c0.696,2.436,3.243,3.852,5.676,3.154
			l5.194-1.484l1.09-0.311l0.736-0.21c0.14-0.04,0.277-0.088,0.411-0.14c0.468-0.182,0.891-0.436,1.26-0.744
			c0.26-0.216,0.494-0.46,0.699-0.724c0.196-0.255,0.366-0.53,0.505-0.821c0.472-0.979,0.601-2.125,0.28-3.246
			c-0.322-1.123-1.038-2.026-1.953-2.608c0.208-0.246,0.45-0.462,0.722-0.646c0.313-0.212,0.661-0.381,1.043-0.488l0.261-0.074
			l1.049-0.301c0.862,0.887,1.525,1.99,1.889,3.258c0.36,1.268,0.384,2.556,0.116,3.764c-0.079,0.363-0.186,0.719-0.315,1.066
			c-0.146,0.391-0.325,0.767-0.532,1.127C27.344,33.488,26.989,33.972,26.582,34.409z"/>
		<path fill="#221E20" d="M38.838,30.913c-0.316,0.338-0.661,0.646-1.037,0.925c-0.387,0.289-0.807,0.542-1.254,0.756
			c-0.389,0.188-0.796,0.347-1.225,0.469l-7.023,2.005c-0.428,0.121-0.857,0.201-1.286,0.25c0.356-0.352,0.679-0.734,0.968-1.139
			c0.349-0.486,0.646-1.008,0.89-1.555c0.155-0.354,0.286-0.719,0.396-1.091l3.371-0.96l1.092-0.311l0.734-0.21
			c0.14-0.041,0.276-0.088,0.41-0.14c0.467-0.184,0.891-0.438,1.26-0.744c0.26-0.217,0.495-0.459,0.697-0.725
			c0.197-0.254,0.366-0.528,0.506-0.817c0.469-0.975,0.599-2.121,0.277-3.246c-0.323-1.124-1.04-2.031-1.956-2.611
			c0.21-0.245,0.452-0.463,0.724-0.646c0.312-0.212,0.66-0.38,1.042-0.489l0.261-0.073l1.049-0.301
			c0.863,0.887,1.529,1.994,1.891,3.262c0.363,1.271,0.385,2.558,0.118,3.764c-0.081,0.363-0.187,0.72-0.317,1.064
			c-0.146,0.391-0.324,0.766-0.529,1.127C39.598,29.993,39.246,30.476,38.838,30.913z"/>
	</g>
	<path display="inline" fill="#FFFFFF" d="M33.559,17.003c0.086,0.239-0.038,0.503-0.277,0.59l-0.488,0.176
		c-0.238,0.086-0.504-0.038-0.59-0.277l-1.639-4.552c-0.088-0.239,0.036-0.503,0.277-0.59l0.487-0.176
		c0.239-0.086,0.504,0.038,0.589,0.277L33.559,17.003z"/>
	<path display="inline" fill="#FFFFFF" d="M39.188,14.812c0.209-0.147,0.496-0.101,0.646,0.107l0.302,0.42
		c0.146,0.207,0.101,0.497-0.109,0.644l-3.931,2.816c-0.207,0.148-0.496,0.1-0.646-0.106l-0.301-0.421
		c-0.148-0.208-0.099-0.496,0.106-0.644L39.188,14.812z"/>
	<path display="inline" fill="#FFFFFF" d="M35.046,10.278c0.052-0.25,0.294-0.41,0.545-0.362l0.509,0.103
		c0.247,0.051,0.409,0.295,0.358,0.544l-0.956,4.743c-0.049,0.248-0.293,0.412-0.543,0.36l-0.509-0.101
		c-0.249-0.052-0.408-0.296-0.359-0.545L35.046,10.278z"/>
	<g display="inline">
		<path fill="#4F5D73" d="M20.539,21.24c0.315-0.338,0.662-0.647,1.036-0.927c0.389-0.289,0.809-0.542,1.254-0.756
			c0.389-0.187,0.798-0.345,1.226-0.468l7.018-2.002c0.429-0.123-0.328,1.894-0.569,2.441c-0.156,0.354-0.288,0.717-0.395,1.088
			l-3.367,0.962l-1.091,0.312l-0.737,0.209c-0.14,0.04-0.276,0.088-0.409,0.14c-0.468,0.183-0.891,0.437-1.262,0.743
			c-0.26,0.217-0.494,0.46-0.698,0.726c-0.196,0.256-0.365,0.531-0.505,0.819c-0.471,0.979-0.601,2.124-0.28,3.246
			c0.321,1.124,1.037,2.029,1.953,2.61c-0.209,0.245-0.452,0.462-0.724,0.646c-0.313,0.211-0.66,0.38-1.042,0.488l-0.261,0.074
			l-1.048,0.3c-0.864-0.886-1.525-1.99-1.889-3.261c-0.362-1.269-0.382-2.555-0.118-3.76c0.081-0.364,0.187-0.721,0.317-1.068
			c0.147-0.389,0.326-0.766,0.532-1.126C19.777,22.16,20.131,21.677,20.539,21.24z"/>
		<path fill="#4F5D73" d="M26.582,33.281c-0.312,0.338-0.66,0.647-1.036,0.926c-0.389,0.289-0.809,0.541-1.255,0.756
			c-0.389,0.188-0.796,0.347-1.226,0.469l-7.02,2.006c-4.094,1.17-8.377-1.21-9.548-5.307c-1.168-4.094,1.211-8.374,5.306-9.542
			l7.02-2.007c0.429-0.122,0.859-0.203,1.289-0.249c-0.359,0.35-0.682,0.732-0.97,1.137c-0.348,0.487-0.647,1.008-0.888,1.556
			c-0.156,0.353-0.288,0.717-0.395,1.09l-5.195,1.482c-2.433,0.695-3.85,3.239-3.153,5.674c0.696,2.436,3.243,3.852,5.676,3.154
			l5.194-1.484l1.09-0.311l0.736-0.21c0.14-0.04,0.277-0.088,0.411-0.14c0.468-0.182,0.891-0.436,1.26-0.744
			c0.26-0.216,0.494-0.46,0.699-0.724c0.196-0.255,0.366-0.53,0.505-0.821c0.472-0.979,0.601-2.125,0.28-3.246
			c-0.322-1.123-1.038-2.026-1.953-2.609c0.208-0.245,0.45-0.462,0.722-0.646c0.313-0.212,0.661-0.381,1.043-0.488l0.261-0.074
			l1.049-0.301c0.862,0.887,1.525,1.989,1.889,3.258c0.36,1.268,0.384,2.556,0.116,3.764c-0.079,0.363-0.186,0.719-0.315,1.066
			c-0.146,0.391-0.325,0.767-0.532,1.127C27.344,32.36,26.989,32.844,26.582,33.281z"/>
		<path fill="#4F5D73" d="M38.838,29.785c-0.316,0.338-0.661,0.646-1.037,0.925c-0.387,0.289-0.807,0.542-1.254,0.756
			c-0.389,0.188-0.796,0.347-1.225,0.469l-7.023,2.005c-0.428,0.121-0.857,0.201-1.286,0.25c0.356-0.352,0.679-0.734,0.968-1.139
			c0.349-0.486,0.646-1.008,0.89-1.555c0.155-0.354,0.286-0.719,0.396-1.091l3.371-0.96l1.092-0.311l0.734-0.21
			c0.14-0.041,0.276-0.088,0.41-0.14c0.467-0.184,0.891-0.438,1.26-0.744c0.26-0.217,0.495-0.459,0.697-0.725
			c0.197-0.254,0.366-0.528,0.506-0.817c0.469-0.975,0.599-2.121,0.277-3.246c-0.323-1.124-1.04-2.031-1.956-2.611
			c0.21-0.245,0.452-0.463,0.724-0.646c0.312-0.212,0.66-0.38,1.042-0.489l0.261-0.073l1.049-0.301
			c0.863,0.887,1.529,1.994,1.891,3.262c0.363,1.271,0.385,2.559,0.118,3.764c-0.081,0.363-0.187,0.72-0.317,1.064
			c-0.146,0.391-0.324,0.766-0.529,1.127C39.598,28.865,39.246,29.348,38.838,29.785z"/>
	</g>
</g>
<g id="resultaten" display="none">
	<g display="inline" opacity="0.2">
		<g>
			<defs>
				<rect id="SVGID_1_" x="25.181" y="14.047" width="16.802" height="18.4"/>
			</defs>
			<clipPath id="SVGID_2_">
				<use xlink:href="#SVGID_1_"  overflow="visible"/>
			</clipPath>
		</g>
	</g>
	<g display="inline">
		<g>
			<g opacity="0.2">
				<g>
					<defs>
						<rect id="SVGID_3_" x="5.303" y="14.917" width="38.805" height="16.355"/>
					</defs>
					<clipPath id="SVGID_4_">
						<use xlink:href="#SVGID_3_"  overflow="visible"/>
					</clipPath>
					<path clip-path="url(#SVGID_4_)" fill="#231F20" d="M43.866,23.759l-3.929-3.928l-4.672-4.673
						c-0.322-0.323-0.845-0.323-1.169,0l-2.919,2.921l-2.92,2.919c-0.324,0.323-0.324,0.845,0,1.168l4.672,4.673l3.929,3.929
						c0.322,0.322,0.845,0.322,1.167,0l2.921-2.919l2.92-2.923C44.188,24.604,44.188,24.082,43.866,23.759"/>
					<path clip-path="url(#SVGID_4_)" fill="#231F20" d="M18.386,18.079l-2.92-2.92c-0.322-0.323-0.845-0.323-1.168,0l-4.672,4.672
						l-3.929,3.929c-0.322,0.322-0.564,1.106-0.242,1.429l2.92,2.921l2.92,2.92c0.323,0.322,0.846,0.322,1.168,0l4.172-4.189
						l4.671-4.673c0.323-0.323,0.323-0.846,0-1.169L18.386,18.079z"/>
				</g>
			</g>
			<path fill="#FFFFFF" d="M36.433,21.848l-3.503,3.506l3.929,3.929c0.322,0.322,0.845,0.322,1.169,0l2.919-2.92L36.433,21.848z"/>
			<path fill="#FFFFFF" d="M39.938,18.344l-4.672-4.672c-0.322-0.323-0.847-0.323-1.169,0l-2.919,2.92l5.255,5.256L39.938,18.344z"
				/>
			<path fill="#4F5D73" d="M40.946,26.362l2.92-2.921c0.322-0.323,0.322-0.846,0-1.168l-3.929-3.929l-3.505,3.504L40.946,26.362z"/>
			<path fill="#4F5D73" d="M31.178,16.592l-2.92,2.919c-0.322,0.323-0.322,0.846,0,1.169l4.672,4.673l3.503-3.506L31.178,16.592z"/>
			<path fill="#FFFFFF" d="M13.13,21.848l3.505,3.506l-4.172,4.189c-0.322,0.322-0.845,0.322-1.168,0l-2.92-2.921L13.13,21.848z"/>
			<path fill="#FFFFFF" d="M9.626,18.344l4.672-4.672c0.322-0.323,0.846-0.323,1.168,0l2.92,2.92l-5.256,5.256L9.626,18.344z"/>
			<path fill="#4F5D73" d="M8.375,26.622l-2.92-2.921c-0.322-0.322-0.081-1.106,0.241-1.429l3.929-3.928l3.505,3.504L8.375,26.622z"
				/>
			<path fill="#4F5D73" d="M18.386,16.592l2.92,2.919c0.323,0.323,0.323,0.846,0,1.169l-4.671,4.673l-3.505-3.506L18.386,16.592z"/>
			<g opacity="0.2">
				<g>
					<defs>
						<rect id="SVGID_5_" x="12.94" y="13.985" width="23.382" height="23.384"/>
					</defs>
					<clipPath id="SVGID_6_">
						<use xlink:href="#SVGID_5_"  overflow="visible"/>
					</clipPath>
					<path clip-path="url(#SVGID_6_)" fill="#231F20" d="M14.055,37.369c-0.286,0-0.57-0.109-0.788-0.327
						c-0.436-0.436-0.436-1.141,0-1.576l21.152-21.154c0.436-0.436,1.142-0.436,1.577,0s0.436,1.142,0,1.577L14.843,37.042
						C14.625,37.26,14.34,37.369,14.055,37.369"/>
				</g>
			</g>
			
				<line fill="none" stroke="#E0E0D1" stroke-width="2.23" stroke-linecap="round" stroke-linejoin="round" stroke-miterlimit="10" x1="35.208" y1="13.613" x2="14.055" y2="34.768"/>
			<g opacity="0.2">
				<g>
					<defs>
						<rect id="SVGID_7_" x="13.242" y="13.985" width="23.383" height="23.384"/>
					</defs>
					<clipPath id="SVGID_8_">
						<use xlink:href="#SVGID_7_"  overflow="visible"/>
					</clipPath>
					<path clip-path="url(#SVGID_8_)" fill="#231F20" d="M35.51,37.369c-0.286,0-0.572-0.109-0.79-0.327L13.569,15.888
						c-0.436-0.435-0.436-1.141,0-1.577s1.141-0.436,1.576,0l21.153,21.154c0.435,0.436,0.435,1.141,0,1.576
						C36.08,37.26,35.794,37.369,35.51,37.369"/>
				</g>
			</g>
			
				<line fill="none" stroke="#E0E0D1" stroke-width="2.23" stroke-linecap="round" stroke-linejoin="round" stroke-miterlimit="10" x1="14.357" y1="13.613" x2="35.508" y2="34.768"/>
		</g>
	</g>
</g>
<g id="pagina_titel" display="none">
	<g display="inline">
		<g>
			<g opacity="0.2">
				<g>
					<defs>
						<rect id="SVGID_9_" x="9.789" y="11.997" width="29.267" height="27.803"/>
					</defs>
					<clipPath id="SVGID_10_">
						<use xlink:href="#SVGID_9_"  overflow="visible"/>
					</clipPath>
					<path clip-path="url(#SVGID_10_)" fill="#231F20" d="M39.056,36.875c0,1.615-1.311,2.925-2.927,2.925H12.715
						c-1.616,0-2.926-1.31-2.926-2.925V14.923c0-1.616,1.31-2.927,2.926-2.927h23.414c1.616,0,2.927,1.311,2.927,2.927V36.875z"/>
				</g>
			</g>
			<path fill="#FFFFFF" d="M9.789,17.484V35.41c0,1.616,1.31,2.928,2.926,2.928h23.414c1.616,0,2.927-1.312,2.927-2.928V17.484
				H9.789z"/>
			<rect x="12.715" y="25.167" fill="#E0E0D1" width="8.78" height="10.244"/>
			<rect x="24.422" y="25.167" fill="#E0E0D1" width="11.707" height="1.464"/>
			<rect x="24.422" y="28.095" fill="#E0E0D1" width="11.707" height="1.463"/>
			<rect x="24.422" y="31.021" fill="#E0E0D1" width="11.707" height="1.464"/>
			<rect x="24.422" y="33.946" fill="#E0E0D1" width="11.707" height="1.464"/>
		</g>
	</g>
	<g display="inline" opacity="0.2">
		<g>
			<defs>
				<rect id="SVGID_11_" x="9.789" y="11.997" width="29.267" height="10.244"/>
			</defs>
			<clipPath id="SVGID_12_">
				<use xlink:href="#SVGID_11_"  overflow="visible"/>
			</clipPath>
			<path clip-path="url(#SVGID_12_)" fill="#4F5D73" d="M39.056,14.923c0-1.616-1.311-2.927-2.927-2.927H12.715
				c-1.616,0-2.926,1.311-2.926,2.927v7.317h29.267V14.923z"/>
		</g>
	</g>
	<path display="inline" fill="#E0E0D1" d="M39.056,13.46c0-1.616-1.311-2.927-2.927-2.927H12.715c-1.616,0-2.926,1.311-2.926,2.927
		v4.39h29.267V13.46z"/>
	<path display="inline" fill="#E0995E" d="M19.3,14.191c0-0.808-0.655-1.463-1.463-1.463c-0.809,0-1.464,0.655-1.464,1.463
		c0,0.809,0.655,1.463,1.464,1.463C18.646,15.655,19.3,15,19.3,14.191"/>
	<path display="inline" fill="#76C2AF" d="M23.69,14.191c0-0.808-0.655-1.463-1.463-1.463c-0.809,0-1.462,0.655-1.462,1.463
		c0,0.809,0.653,1.463,1.462,1.463C23.035,15.655,23.69,15,23.69,14.191"/>
	<path display="inline" fill="#C75C5C" d="M14.911,14.191c0-0.808-0.655-1.463-1.463-1.463s-1.463,0.655-1.463,1.463
		c0,0.809,0.655,1.463,1.463,1.463S14.911,15,14.911,14.191"/>
	<rect x="12.19" y="19.051" display="inline" fill="#4F5D73" width="24.073" height="2.081"/>
</g>
<g id="koppen" display="none">
	<g display="inline">
		<g>
			<g opacity="0.2">
				<g>
					<defs>
						<rect id="SVGID_13_" x="8.688" y="22.584" width="32" height="19.2"/>
					</defs>
					<clipPath id="SVGID_14_">
						<use xlink:href="#SVGID_13_"  overflow="visible"/>
					</clipPath>
					<path clip-path="url(#SVGID_14_)" fill="#231F20" d="M26.089,41.437c-0.774,0.464-2.03,0.464-2.804,0L9.268,33.025
						c-0.773-0.464-0.773-1.218,0-1.683l14.018-8.411c0.773-0.465,2.029-0.465,2.804,0l14.017,8.411
						c0.775,0.465,0.775,1.219,0,1.683L26.089,41.437z"/>
				</g>
			</g>
			<path fill="#77B3D4" d="M26.089,39.837c-0.774,0.463-2.03,0.463-2.804,0L9.268,31.426c-0.773-0.465-0.773-1.218,0-1.683
				l14.018-8.411c0.773-0.465,2.029-0.465,2.804,0l14.017,8.411c0.775,0.465,0.775,1.218,0,1.683L26.089,39.837z"/>
			<g opacity="0.2">
				<g>
					<defs>
						<rect id="SVGID_15_" x="8.688" y="16.184" width="32" height="19.201"/>
					</defs>
					<clipPath id="SVGID_16_">
						<use xlink:href="#SVGID_15_"  overflow="visible"/>
					</clipPath>
					<path clip-path="url(#SVGID_16_)" fill="#231F20" d="M26.089,35.036c-0.774,0.465-2.03,0.465-2.804,0l-14.018-8.41
						c-0.773-0.465-0.773-1.218,0-1.684l14.018-8.41c0.773-0.465,2.029-0.465,2.804,0l14.017,8.41c0.775,0.466,0.775,1.219,0,1.684
						L26.089,35.036z"/>
				</g>
			</g>
			<path fill="#76C2AF" d="M26.089,33.437c-0.774,0.464-2.03,0.464-2.804,0L9.268,25.025c-0.773-0.464-0.773-1.218,0-1.682
				l14.018-8.411c0.773-0.465,2.029-0.465,2.804,0l14.017,8.411c0.775,0.464,0.775,1.218,0,1.682L26.089,33.437z"/>
			<g opacity="0.2">
				<g>
					<defs>
						<rect id="SVGID_17_" x="8.688" y="9.784" width="32" height="19.201"/>
					</defs>
					<clipPath id="SVGID_18_">
						<use xlink:href="#SVGID_17_"  overflow="visible"/>
					</clipPath>
					<path clip-path="url(#SVGID_18_)" fill="#231F20" d="M26.089,28.636c-0.774,0.465-2.03,0.465-2.804,0L9.268,20.225
						c-0.773-0.465-0.773-1.218,0-1.682l14.018-8.411c0.773-0.465,2.029-0.465,2.804,0l14.017,8.411
						c0.775,0.464,0.775,1.217,0,1.682L26.089,28.636z"/>
				</g>
			</g>
			<path fill="#4F5D73" d="M26.089,27.036c-0.774,0.465-2.03,0.465-2.804,0L9.268,18.625c-0.773-0.464-0.773-1.218,0-1.682
				l14.018-8.411c0.773-0.465,2.029-0.465,2.804,0l14.017,8.411c0.775,0.464,0.775,1.218,0,1.682L26.089,27.036z"/>
		</g>
	</g>
	
		<text transform="matrix(0.95 0.5803 -0.8912 0.4537 15.1978 15.2021)" display="inline" fill="#76C2AF" font-family="'MuseoSans-700'" font-size="10.0664">H1</text>
</g>
<g id="leesniveau" display="none">
	<g display="inline">
		<g>
			<g opacity="0.2">
				<g>
					<defs>
						<rect id="SVGID_19_" x="10.922" y="19.792" width="31.222" height="18.747"/>
					</defs>
					<clipPath id="SVGID_20_">
						<use xlink:href="#SVGID_19_"  overflow="visible"/>
					</clipPath>
					<path clip-path="url(#SVGID_20_)" fill="#231F20" d="M15.214,38.438c-0.796,0.304-1.688-0.095-1.991-0.891l-2.2-5.765
						c-0.304-0.796,0.096-1.688,0.892-1.991l25.937-9.896c0.796-0.304,1.688,0.095,1.991,0.891l2.199,5.765
						c0.304,0.795-0.096,1.687-0.892,1.991L15.214,38.438z"/>
				</g>
			</g>
			<path fill="#E0995E" d="M15.152,36.305c-0.318,0-0.607-0.199-0.721-0.496l-2.2-5.764c-0.074-0.193-0.067-0.402,0.016-0.59
				c0.085-0.188,0.237-0.332,0.43-0.406l25.937-9.897c0.089-0.034,0.182-0.051,0.274-0.051c0.318,0,0.608,0.2,0.721,0.497
				l2.199,5.764c0.074,0.192,0.067,0.402-0.016,0.59c-0.084,0.188-0.236,0.332-0.43,0.405l-25.938,9.897
				C15.337,36.287,15.245,36.305,15.152,36.305"/>
			<path fill="#E0E0D1" d="M38.889,19.873L38.889,19.873l2.201,5.763l-25.938,9.897l-2.199-5.764L38.889,19.873 M38.889,18.33
				c-0.183,0-0.368,0.032-0.55,0.102l-25.937,9.897c-0.796,0.304-1.194,1.195-0.892,1.991l2.201,5.764
				c0.234,0.615,0.819,0.993,1.44,0.993c0.183,0,0.37-0.033,0.55-0.102l25.938-9.898c0.796-0.303,1.195-1.194,0.891-1.99
				l-2.199-5.764C40.096,18.708,39.51,18.33,38.889,18.33"/>
			<g opacity="0.2">
				<g>
					<defs>
						<rect id="SVGID_21_" x="10.705" y="15.365" width="29.602" height="23.624"/>
					</defs>
					<clipPath id="SVGID_22_">
						<use xlink:href="#SVGID_21_"  overflow="visible"/>
					</clipPath>
				</g>
			</g>
			<g opacity="0.2">
				<g>
					<defs>
						<rect id="SVGID_23_" x="10.723" y="11.968" width="26.925" height="27.227"/>
					</defs>
					<clipPath id="SVGID_24_">
						<use xlink:href="#SVGID_23_"  overflow="visible"/>
					</clipPath>
					<path clip-path="url(#SVGID_24_)" fill="#231F20" d="M17.771,38.732c-0.596,0.608-1.573,0.617-2.181,0.021l-4.406-4.319
						c-0.607-0.596-0.618-1.573-0.021-2.182L30.598,12.43c0.597-0.609,1.574-0.618,2.182-0.021l4.405,4.318
						c0.608,0.597,0.618,1.573,0.022,2.182L17.771,38.732z"/>
				</g>
			</g>
			<path fill="#77B3D4" d="M17.157,36.961c-0.203,0-0.396-0.078-0.54-0.221l-4.405-4.319c-0.147-0.145-0.23-0.337-0.232-0.543
				c-0.001-0.206,0.077-0.4,0.22-0.547l19.436-19.824c0.146-0.15,0.342-0.231,0.551-0.231c0.203,0,0.395,0.078,0.54,0.22
				l4.404,4.319c0.147,0.146,0.229,0.338,0.232,0.544c0.001,0.206-0.076,0.4-0.221,0.547L17.708,36.729
				C17.561,36.879,17.367,36.961,17.157,36.961"/>
			<path fill="#FFFFFF" d="M32.188,12.047L32.188,12.047l4.404,4.319L17.157,36.189l-4.405-4.319l19.434-19.823
				C32.186,12.047,32.187,12.047,32.188,12.047 M32.188,10.505c-0.399,0-0.8,0.153-1.102,0.462L11.651,30.791
				c-0.596,0.608-0.586,1.584,0.021,2.182l4.406,4.318c0.3,0.294,0.69,0.44,1.08,0.44c0.4,0,0.8-0.154,1.101-0.463l19.435-19.823
				c0.597-0.608,0.587-1.584-0.021-2.181l-4.405-4.319C32.967,10.651,32.576,10.505,32.188,10.505"/>
			<g opacity="0.2">
				<g>
					<defs>
						<rect id="SVGID_25_" x="10.996" y="9.106" width="22.648" height="30.07"/>
					</defs>
					<clipPath id="SVGID_26_">
						<use xlink:href="#SVGID_25_"  overflow="visible"/>
					</clipPath>
				</g>
			</g>
			<g opacity="0.2">
				<g>
					<defs>
						<rect id="SVGID_27_" x="11.478" y="7.542" width="17.718" height="31.374"/>
					</defs>
					<clipPath id="SVGID_28_">
						<use xlink:href="#SVGID_27_"  overflow="visible"/>
					</clipPath>
					<path clip-path="url(#SVGID_28_)" fill="#231F20" d="M20.337,37.86c-0.27,0.81-1.143,1.245-1.951,0.977l-5.852-1.951
						c-0.809-0.27-1.245-1.144-0.976-1.951l8.779-26.336c0.27-0.809,1.143-1.246,1.95-0.976l5.854,1.951
						c0.808,0.269,1.244,1.142,0.975,1.951L20.337,37.86z"/>
				</g>
			</g>
			<path fill="#76C2AF" d="M19.362,36.682c-0.082,0-0.165-0.014-0.244-0.04l-5.853-1.95c-0.197-0.066-0.354-0.203-0.446-0.387
				c-0.093-0.185-0.108-0.394-0.043-0.59l8.779-26.336c0.105-0.316,0.399-0.528,0.731-0.528c0.083,0,0.165,0.014,0.244,0.04
				l5.854,1.951c0.195,0.065,0.354,0.202,0.445,0.387c0.093,0.185,0.107,0.394,0.042,0.588l-8.779,26.336
				C19.987,36.47,19.694,36.682,19.362,36.682"/>
			<path fill="#FFFFFF" d="M22.289,7.623l5.852,1.95l-8.78,26.337l-5.852-1.951L22.289,7.623 M22.287,6.08
				c-0.645,0-1.248,0.408-1.462,1.054l-8.78,26.337c-0.27,0.808,0.167,1.681,0.975,1.95l5.853,1.951
				c0.163,0.054,0.327,0.079,0.489,0.079c0.645,0,1.246-0.408,1.463-1.055l8.778-26.336c0.27-0.808-0.168-1.682-0.977-1.951
				l-5.852-1.951C22.613,6.105,22.449,6.08,22.287,6.08"/>
			<g opacity="0.2">
				<g>
					<defs>
						<rect id="SVGID_29_" x="15.945" y="30.657" width="2.894" height="2.893"/>
					</defs>
					<clipPath id="SVGID_30_">
						<use xlink:href="#SVGID_29_"  overflow="visible"/>
					</clipPath>
					<path clip-path="url(#SVGID_30_)" fill="#231F20" d="M18.763,32.562c-0.251,0.757-1.071,1.166-1.829,0.914
						c-0.758-0.253-1.167-1.071-0.914-1.829c0.252-0.757,1.071-1.167,1.828-0.914C18.607,30.985,19.016,31.804,18.763,32.562"/>
				</g>
			</g>
			<path fill="#FFFFFF" d="M19.069,31.646c-0.253,0.758-1.072,1.167-1.83,0.915c-0.757-0.253-1.167-1.071-0.914-1.829
				c0.253-0.758,1.072-1.167,1.829-0.915C18.912,30.07,19.32,30.89,19.069,31.646"/>
		</g>
	</g>
	
		<text transform="matrix(0.954 0.2999 -0.2999 0.954 21.1934 12.9561)" display="inline" fill="#FFFFFF" font-family="'TradeGothic-BoldCondTwenty'" font-size="5.5198">A1</text>
	
		<text transform="matrix(0.7235 0.6904 -0.6904 0.7235 28.9766 16.1367)" display="inline" fill="#FFFFFF" font-family="'TradeGothic-BoldCondTwenty'" font-size="5.5198">B1</text>
	
		<text transform="matrix(0.348 0.9375 -0.9375 0.348 34.5186 22.2764)" display="inline" fill="#FFFFFF" font-family="'TradeGothic-BoldCondTwenty'" font-size="5.5198">C1</text>
</g>
<g id="Layer_9">
	<g>
		<g>
			<path fill="#FFFFFF" d="M17.949,33.57c0.261-0.787,1.112-1.212,1.9-0.95c0.787,0.263,1.212,1.113,0.951,1.9"/>
			<path fill="#FFFFFF" d="M20.8,34.521"/>
		</g>
	</g>
	<g opacity="0.1">
		<g>
			<defs>
				<rect id="SVGID_31_" x="12.703" y="10.174" width="24.572" height="30.717"/>
			</defs>
			<clipPath id="SVGID_32_">
				<use xlink:href="#SVGID_31_"  overflow="visible"/>
			</clipPath>
			<path clip-path="url(#SVGID_32_)" fill="#221E20" d="M28.059,17.087v-6.913H15.005c-1.272,0-2.303,1.032-2.303,2.305v26.109
				c0,1.273,1.031,2.304,2.303,2.304H34.97c1.273,0,2.305-1.03,2.305-2.304V19.389h-6.911C29.09,19.389,28.059,18.359,28.059,17.087
				"/>
		</g>
	</g>
	<path fill="#DFDFD0" d="M28.059,15.55V8.639H15.005c-1.272,0-2.303,1.031-2.303,2.305v26.108c0,1.272,1.031,2.304,2.303,2.304
		H34.97c1.273,0,2.305-1.031,2.305-2.304V17.853h-6.911C29.09,17.853,28.059,16.823,28.059,15.55"/>
	<g opacity="0.2">
		<g>
			<defs>
				<rect id="SVGID_33_" x="28.838" y="17.311" width="8.437" height="7.456"/>
			</defs>
			<clipPath id="SVGID_34_">
				<use xlink:href="#SVGID_33_"  overflow="visible"/>
			</clipPath>
			<polygon clip-path="url(#SVGID_34_)" fill="#A5A7AA" points="28.838,17.311 37.274,24.767 37.274,17.853 			"/>
		</g>
	</g>
	<path fill="#EA5A74" d="M28.059,8.639v6.911c0,1.272,1.031,2.303,2.305,2.303h6.911L28.059,8.639z"/>
	<g>
		<g>
			<defs>
				<rect id="SVGID_35_" x="17.31" y="34.878" width="15.356" height="1.536"/>
			</defs>
			<use xlink:href="#SVGID_35_"  overflow="visible" fill="#A5A7AA"/>
			<clipPath id="SVGID_36_">
				<use xlink:href="#SVGID_35_"  overflow="visible"/>
			</clipPath>
			<rect x="17.31" y="34.878" clip-path="url(#SVGID_36_)" fill="#A5A7AA" width="15.356" height="1.536"/>
		</g>
	</g>
	<g>
		<g>
			<defs>
				<rect id="SVGID_37_" x="17.31" y="31.382" width="15.356" height="1.538"/>
			</defs>
			<use xlink:href="#SVGID_37_"  overflow="visible" fill="#A5A7AA"/>
			<clipPath id="SVGID_38_">
				<use xlink:href="#SVGID_37_"  overflow="visible"/>
			</clipPath>
			<rect x="17.31" y="31.382" clip-path="url(#SVGID_38_)" fill="#A5A7AA" width="15.356" height="1.538"/>
		</g>
	</g>
	<g>
		<g>
			<defs>
				<rect id="SVGID_39_" x="17.31" y="27.889" width="15.356" height="1.537"/>
			</defs>
			<use xlink:href="#SVGID_39_"  overflow="visible" fill="#A5A7AA"/>
			<clipPath id="SVGID_40_">
				<use xlink:href="#SVGID_39_"  overflow="visible"/>
			</clipPath>
			<rect x="17.31" y="27.889" clip-path="url(#SVGID_40_)" fill="#A5A7AA" width="15.356" height="1.537"/>
		</g>
	</g>
	<g>
		<g>
			<defs>
				<rect id="SVGID_41_" x="17.31" y="24.393" width="15.356" height="1.538"/>
			</defs>
			<use xlink:href="#SVGID_41_"  overflow="visible" fill="#A5A7AA"/>
			<clipPath id="SVGID_42_">
				<use xlink:href="#SVGID_41_"  overflow="visible"/>
			</clipPath>
			<rect x="17.31" y="24.393" clip-path="url(#SVGID_42_)" fill="#A5A7AA" width="15.356" height="1.538"/>
		</g>
	</g>
	<g>
		<g>
			<defs>
				<rect id="SVGID_43_" x="17.31" y="20.898" width="15.356" height="1.536"/>
			</defs>
			<use xlink:href="#SVGID_43_"  overflow="visible" fill="#A5A7AA"/>
			<clipPath id="SVGID_44_">
				<use xlink:href="#SVGID_43_"  overflow="visible"/>
			</clipPath>
			<rect x="17.31" y="20.898" clip-path="url(#SVGID_44_)" fill="#A5A7AA" width="15.356" height="1.536"/>
		</g>
	</g>
	<path fill="#EA5A74" d="M22.764,35.392c-0.423,0-0.827-0.198-1.087-0.538l-4.189-5.479c-0.46-0.602-0.345-1.461,0.256-1.921
		c0.6-0.457,1.46-0.343,1.918,0.257l2.867,3.75c1.581-2.847,2.459-5.411,8.133-9.737c0.602-0.458,1.482-0.229,1.894,0.407
		s0.208,1.452-0.407,1.893c-6.164,4.424-8.096,10.464-8.129,10.543c-0.193,0.444-0.607,0.753-1.089,0.813
		C22.875,35.386,22.817,35.392,22.764,35.392"/>
</g>
</svg>
