<?xml version="1.0" encoding="utf-8"?>
<!-- Generator: Adobe Illustrator 16.0.0, SVG Export Plug-In . SVG Version: 6.00 Build 0)  -->
<!DOCTYPE svg PUBLIC "-//W3C//DTD SVG 1.1//EN" "http://www.w3.org/Graphics/SVG/1.1/DTD/svg11.dtd">
<svg version="1.1" xmlns="http://www.w3.org/2000/svg" xmlns:xlink="http://www.w3.org/1999/xlink" x="0px" y="0px"
	 width="49.375px" height="49.375px" viewBox="0 0 49.375 49.375" enable-background="new 0 0 49.375 49.375" xml:space="preserve">
<g id="Layer_1">
	<circle fill="#02B2D3" cx="24.422" cy="24.24" r="23"/>
</g>
<g id="Layer_8">
	<g opacity="0.15">
		<path fill="#221E20" d="M20.539,22.368c0.315-0.338,0.662-0.647,1.036-0.927c0.389-0.289,0.809-0.542,1.254-0.756
			c0.389-0.187,0.798-0.345,1.226-0.468l7.018-2.002c0.429-0.123-0.857,3.158-0.964,3.529l-3.367,0.962l-1.091,0.312l-0.737,0.209
			c-0.14,0.04-0.276,0.088-0.409,0.14c-0.468,0.183-0.891,0.437-1.262,0.743c-0.26,0.217-0.494,0.46-0.698,0.726
			c-0.196,0.256-0.365,0.532-0.505,0.819c-0.471,0.979-0.601,2.124-0.28,3.246c0.321,1.124,1.037,2.029,1.953,2.61
			c-0.209,0.245-0.452,0.462-0.724,0.646c-0.313,0.211-0.66,0.38-1.042,0.488l-0.261,0.074l-1.048,0.3
			c-0.864-0.886-1.525-1.99-1.889-3.261c-0.362-1.269-0.382-2.555-0.118-3.761c0.081-0.363,0.187-0.721,0.317-1.068
			c0.147-0.389,0.326-0.766,0.532-1.126C19.777,23.288,20.131,22.805,20.539,22.368z"/>
		<path fill="#221E20" d="M26.582,34.409c-0.312,0.338-0.66,0.647-1.036,0.926c-0.389,0.289-0.809,0.541-1.255,0.756
			c-0.389,0.188-0.796,0.347-1.226,0.469l-7.02,2.006c-4.094,1.17-8.377-1.21-9.548-5.307c-1.168-4.094,1.211-8.374,5.306-9.542
			l7.02-2.007c0.429-0.122,0.859-0.203,1.289-0.249c-0.359,0.35-0.682,0.732-0.97,1.137c-0.348,0.487-0.647,1.008-0.888,1.556
			c-0.156,0.353-0.288,0.717-0.395,1.09l-5.195,1.482c-2.433,0.695-3.85,3.239-3.153,5.674c0.696,2.436,3.243,3.852,5.676,3.154
			l5.194-1.484l1.09-0.311l0.736-0.21c0.14-0.04,0.277-0.088,0.411-0.14c0.468-0.182,0.891-0.436,1.26-0.744
			c0.26-0.216,0.494-0.46,0.699-0.724c0.196-0.255,0.366-0.53,0.505-0.821c0.472-0.979,0.601-2.125,0.28-3.246
			c-0.322-1.123-1.038-2.026-1.953-2.608c0.208-0.246,0.45-0.462,0.722-0.646c0.313-0.212,0.661-0.381,1.043-0.488l0.261-0.074
			l1.049-0.301c0.862,0.887,1.525,1.99,1.889,3.258c0.36,1.268,0.384,2.556,0.116,3.764c-0.079,0.363-0.186,0.719-0.315,1.066
			c-0.146,0.391-0.325,0.767-0.532,1.127C27.344,33.488,26.989,33.972,26.582,34.409z"/>
		<path fill="#221E20" d="M38.838,30.913c-0.316,0.338-0.661,0.646-1.037,0.925c-0.387,0.289-0.807,0.542-1.254,0.756
			c-0.389,0.188-0.796,0.347-1.225,0.469l-7.023,2.005c-0.428,0.121-0.857,0.201-1.286,0.25c0.356-0.352,0.679-0.734,0.968-1.139
			c0.349-0.486,0.646-1.008,0.89-1.555c0.155-0.354,0.286-0.719,0.396-1.091l3.371-0.96l1.092-0.311l0.734-0.21
			c0.14-0.041,0.276-0.088,0.41-0.14c0.467-0.184,0.891-0.438,1.26-0.744c0.26-0.217,0.495-0.459,0.697-0.725
			c0.197-0.254,0.366-0.528,0.506-0.817c0.469-0.975,0.599-2.121,0.277-3.246c-0.323-1.124-1.04-2.031-1.956-2.611
			c0.21-0.245,0.452-0.463,0.724-0.646c0.312-0.212,0.66-0.38,1.042-0.489l0.261-0.073l1.049-0.301
			c0.863,0.887,1.529,1.994,1.891,3.262c0.363,1.271,0.385,2.558,0.118,3.764c-0.081,0.363-0.187,0.72-0.317,1.064
			c-0.146,0.391-0.324,0.766-0.529,1.127C39.598,29.993,39.246,30.476,38.838,30.913z"/>
	</g>
	<path fill="#FFFFFF" d="M33.559,17.003c0.086,0.239-0.038,0.503-0.277,0.59l-0.488,0.176c-0.238,0.086-0.504-0.038-0.59-0.277
		l-1.639-4.552c-0.088-0.239,0.036-0.503,0.277-0.59l0.487-0.176c0.239-0.086,0.504,0.038,0.589,0.277L33.559,17.003z"/>
	<path fill="#FFFFFF" d="M39.188,14.812c0.209-0.147,0.496-0.101,0.646,0.107l0.302,0.42c0.146,0.207,0.101,0.497-0.109,0.644
		l-3.931,2.816c-0.207,0.148-0.496,0.1-0.646-0.106l-0.301-0.421c-0.148-0.208-0.099-0.496,0.106-0.644L39.188,14.812z"/>
	<path fill="#FFFFFF" d="M35.046,10.278c0.052-0.25,0.294-0.41,0.545-0.362l0.509,0.103c0.247,0.051,0.409,0.295,0.358,0.544
		l-0.956,4.743c-0.049,0.248-0.293,0.412-0.543,0.36l-0.509-0.101c-0.249-0.052-0.408-0.296-0.359-0.545L35.046,10.278z"/>
	<g>
		<path fill="#4F5D73" d="M20.539,21.24c0.315-0.338,0.662-0.647,1.036-0.927c0.389-0.289,0.809-0.542,1.254-0.756
			c0.389-0.187,0.798-0.345,1.226-0.468l7.018-2.002c0.429-0.123-0.328,1.894-0.569,2.441c-0.156,0.354-0.288,0.717-0.395,1.088
			l-3.367,0.962l-1.091,0.312l-0.737,0.209c-0.14,0.04-0.276,0.088-0.409,0.14c-0.468,0.183-0.891,0.437-1.262,0.743
			c-0.26,0.217-0.494,0.46-0.698,0.726c-0.196,0.256-0.365,0.531-0.505,0.819c-0.471,0.979-0.601,2.124-0.28,3.246
			c0.321,1.124,1.037,2.029,1.953,2.61c-0.209,0.245-0.452,0.462-0.724,0.646c-0.313,0.211-0.66,0.38-1.042,0.488l-0.261,0.074
			l-1.048,0.3c-0.864-0.886-1.525-1.99-1.889-3.261c-0.362-1.269-0.382-2.555-0.118-3.76c0.081-0.364,0.187-0.721,0.317-1.068
			c0.147-0.389,0.326-0.766,0.532-1.126C19.777,22.16,20.131,21.677,20.539,21.24z"/>
		<path fill="#4F5D73" d="M26.582,33.281c-0.312,0.338-0.66,0.647-1.036,0.926c-0.389,0.289-0.809,0.541-1.255,0.756
			c-0.389,0.188-0.796,0.347-1.226,0.469l-7.02,2.006c-4.094,1.17-8.377-1.21-9.548-5.307c-1.168-4.094,1.211-8.374,5.306-9.542
			l7.02-2.007c0.429-0.122,0.859-0.203,1.289-0.249c-0.359,0.35-0.682,0.732-0.97,1.137c-0.348,0.487-0.647,1.008-0.888,1.556
			c-0.156,0.353-0.288,0.717-0.395,1.09l-5.195,1.482c-2.433,0.695-3.85,3.239-3.153,5.674c0.696,2.436,3.243,3.852,5.676,3.154
			l5.194-1.484l1.09-0.311l0.736-0.21c0.14-0.04,0.277-0.088,0.411-0.14c0.468-0.182,0.891-0.436,1.26-0.744
			c0.26-0.216,0.494-0.46,0.699-0.724c0.196-0.255,0.366-0.53,0.505-0.821c0.472-0.979,0.601-2.125,0.28-3.246
			c-0.322-1.123-1.038-2.026-1.953-2.609c0.208-0.245,0.45-0.462,0.722-0.646c0.313-0.212,0.661-0.381,1.043-0.488l0.261-0.074
			l1.049-0.301c0.862,0.887,1.525,1.989,1.889,3.258c0.36,1.268,0.384,2.556,0.116,3.764c-0.079,0.363-0.186,0.719-0.315,1.066
			c-0.146,0.391-0.325,0.767-0.532,1.127C27.344,32.36,26.989,32.844,26.582,33.281z"/>
		<path fill="#4F5D73" d="M38.838,29.785c-0.316,0.338-0.661,0.646-1.037,0.925c-0.387,0.289-0.807,0.542-1.254,0.756
			c-0.389,0.188-0.796,0.347-1.225,0.469l-7.023,2.005c-0.428,0.121-0.857,0.201-1.286,0.25c0.356-0.352,0.679-0.734,0.968-1.139
			c0.349-0.486,0.646-1.008,0.89-1.555c0.155-0.354,0.286-0.719,0.396-1.091l3.371-0.96l1.092-0.311l0.734-0.21
			c0.14-0.041,0.276-0.088,0.41-0.14c0.467-0.184,0.891-0.438,1.26-0.744c0.26-0.217,0.495-0.459,0.697-0.725
			c0.197-0.254,0.366-0.528,0.506-0.817c0.469-0.975,0.599-2.121,0.277-3.246c-0.323-1.124-1.04-2.031-1.956-2.611
			c0.21-0.245,0.452-0.463,0.724-0.646c0.312-0.212,0.66-0.38,1.042-0.489l0.261-0.073l1.049-0.301
			c0.863,0.887,1.529,1.994,1.891,3.262c0.363,1.271,0.385,2.559,0.118,3.764c-0.081,0.363-0.187,0.72-0.317,1.064
			c-0.146,0.391-0.324,0.766-0.529,1.127C39.598,28.865,39.246,29.348,38.838,29.785z"/>
	</g>
</g>
</svg>
