<?xml version="1.0" encoding="UTF-8" standalone="no"?>
<svg id="svg2" xmlns:rdf="http://www.w3.org/1999/02/22-rdf-syntax-ns#" xmlns="http://www.w3.org/2000/svg" enable-background="new 0 0 512 512" xml:space="preserve" height="250" width="250" version="1.1" y="0px" x="0px" xmlns:cc="http://creativecommons.org/ns#" xmlns:dc="http://purl.org/dc/elements/1.1/" viewBox="0 0 250 249.99999"><path id="info-6-icon" d="m172.48 53.649c-12.795 10.891-31.76 10.655-42.37-0.532-10.607-11.181-8.837-29.076 3.955-39.969 12.794-10.89 31.763-10.654 42.37 0.525 10.606 11.186 8.838 29.08-3.955 39.976zm-58.45 187.68c-28.21 9.913-51.466-1.455-46.801-28.547 4.667-27.098 31.436-85.109 35.255-96.079 3.816-10.97-3.502-13.977-11.346-9.513-4.524 2.61-11.248 7.841-17.02 12.925-1.601-3.223-3.852-6.906-5.542-10.433 9.419-9.439 25.164-22.094 43.803-26.681 22.27-5.497 59.492 3.29 43.494 45.858-11.424 30.34-19.503 51.276-24.594 66.868-5.088 15.598 0.955 18.868 9.863 12.791 6.959-4.751 14.372-11.214 19.806-16.226 2.515 4.086 3.319 5.389 5.806 10.084-9.433 9.669-34.108 32.296-52.724 38.953z"/></svg>
