<?xml version="1.0" encoding="UTF-8" standalone="no"?>
<svg xmlns:rdf="http://www.w3.org/1999/02/22-rdf-syntax-ns#" xmlns="http://www.w3.org/2000/svg" xml:space="preserve" viewBox="0 0 270.00001 270.00001" height="270" width="270" version="1.1" y="0px" x="0px" xmlns:cc="http://creativecommons.org/ns#" xmlns:dc="http://purl.org/dc/elements/1.1/"><path d="m135 19.999c-1.9816 0-3.9509 0.05084-5.9082 0.15039s-3.9014 0.24865-5.832 0.44531c-0.96528 0.09833-1.9266 0.20792-2.8848 0.33008-2.8744 0.36647-5.7167 0.84058-8.5215 1.416-1.8698 0.38362-3.7228 0.8117-5.5586 1.2852-1.8358 0.47346-3.6538 0.99186-5.4531 1.5527-1.7994 0.56087-3.5813 1.1647-5.3418 1.8105-0.88025 0.32293-1.7549 0.65628-2.625 1-0.87008 0.34372-1.7341 0.6983-2.5938 1.0625-0.8596 0.3642-1.7156 0.73866-2.5645 1.123-0.84828 0.38416-1.6921 0.77958-2.5293 1.1836-0.83774 0.40427-1.6697 0.81834-2.4961 1.2422-1.6527 0.84769-3.2814 1.734-4.8867 2.6582-2.408 1.3863-4.762 2.8567-7.0566 4.4082-1.5298 1.0344-3.0334 2.1042-4.5098 3.209-0.73816 0.55239-1.469 1.1141-2.1934 1.6836-0.72435 0.56954-1.4421 1.148-2.1523 1.7344-2.8406 2.3453-5.5673 4.8251-8.1699 7.4277-0.65107 0.65106-1.2943 1.3082-1.9297 1.9746-0.63511 0.66607-1.2617 1.3404-1.8809 2.0215-1.8575 2.0433-3.643 4.1531-5.3516 6.3262-0.56954 0.72435-1.1312 1.4552-1.6836 2.1934-1.1048 1.4763-2.1746 2.98-3.209 4.5098-0.51718 0.76488-1.0263 1.5367-1.5254 2.3145-0.49912 0.77778-0.988 1.5612-1.4688 2.3516-0.48076 0.79038-0.95197 1.5879-1.4141 2.3906-0.92417 1.6054-1.8105 3.234-2.6582 4.8867-0.84768 1.6527-1.657 3.3297-2.4258 5.0273-0.38439 0.84882-0.75884 1.7029-1.123 2.5625-0.7284 1.7192-1.4167 3.4583-2.0625 5.2188-0.32293 0.88025-0.63567 1.7661-0.9375 2.6562-0.30183 0.89012-0.59262 1.7859-0.87305 2.6856-2.2435 7.1974-3.7973 14.696-4.584 22.418-0.19666 1.9306-0.34577 3.8747-0.44531 5.832-0.04977 0.97864-0.08629 1.9604-0.11133 2.9453-0.02504 0.98487-0.03906 1.9721-0.03906 2.9629s0.01402 1.98 0.03906 2.9648c0.05008 1.9697 0.14847 3.9269 0.29688 5.8711 0.37102 4.8606 1.0468 9.638 2.0059 14.312 0.38362 1.8698 0.8117 3.7228 1.2852 5.5586 0.23673 0.91791 0.48541 1.8313 0.74414 2.7402 0.51747 1.8179 1.078 3.6182 1.6816 5.3984 0.60367 1.7802 1.2501 3.5411 1.9375 5.2812 0.68744 1.7402 1.4168 3.4586 2.1855 5.1562 1.1532 2.5465 2.3952 5.0443 3.7246 7.4883 0.44312 0.81467 0.89728 1.6231 1.3594 2.4258 0.46209 0.80268 0.93331 1.6002 1.4141 2.3906 0.96151 1.5808 1.9598 3.1363 2.9941 4.666 0.51718 0.76488 1.0432 1.5237 1.5781 2.2754 1.0699 1.5034 2.1754 2.979 3.3145 4.4277 2.2782 2.8974 4.692 5.6834 7.2324 8.3477 0.63511 0.66607 1.2789 1.3239 1.9297 1.9746 1.3015 1.3015 2.6339 2.5722 3.9961 3.8106 1.3622 1.2383 2.7534 2.4444 4.1738 3.6172 0.71024 0.58639 1.428 1.1648 2.1523 1.7344 2.8974 2.2782 5.9065 4.4195 9.0176 6.416 0.77778 0.49912 1.5612 0.98994 2.3516 1.4707 0.79038 0.48076 1.5879 0.95197 2.3906 1.4141 0.80268 0.46209 1.6111 0.9143 2.4258 1.3574 0.81467 0.44312 1.6346 0.87694 2.4609 1.3008 0.82636 0.42385 1.6584 0.83792 2.4961 1.2422 3.351 1.6171 6.7915 3.0774 10.312 4.3691 0.88025 0.32293 1.7661 0.63567 2.6562 0.9375 0.89012 0.30184 1.7859 0.59261 2.6856 0.87305 0.89968 0.28043 1.804 0.54986 2.7129 0.80859 0.90894 0.25874 1.8223 0.50741 2.7402 0.74414s1.8391 0.46136 2.7656 0.67579c1.8531 0.42884 3.7235 0.81259 5.6094 1.1504 0.94295 0.16889 1.8911 0.32697 2.8418 0.47265 1.9014 0.29136 3.8175 0.53576 5.748 0.73242 2.8958 0.295 5.8227 0.48153 8.7773 0.55664 0.98487 0.025 1.9721 0.0371 2.9629 0.0371s1.98-0.0121 2.9648-0.0371c17.728-0.45069 34.471-4.9333 49.346-12.562 1.6527-0.84768 3.2814-1.734 4.8867-2.6582 0.80268-0.46208 1.6002-0.93331 2.3906-1.4141 1.5808-0.96151 3.1363-1.9598 4.666-2.9941 0.76488-0.51718 1.5237-1.0432 2.2754-1.5781 0.75167-0.53493 1.4962-1.0785 2.2344-1.6309 0.73816-0.55238 1.469-1.114 2.1934-1.6836 0.72436-0.56954 1.4421-1.148 2.1524-1.7344 1.4205-1.1728 2.8116-2.3788 4.1738-3.6172 0.68109-0.61917 1.3554-1.2458 2.0215-1.8809 0.66641-0.63543 1.3236-1.2786 1.9746-1.9297 0.65074-0.65074 1.2946-1.3085 1.9297-1.9746 0.63544-0.66642 1.2614-1.34 1.8809-2.0215 0.61917-0.6811 1.231-1.3686 1.834-2.0645 1.2059-1.3916 2.3785-2.813 3.5176-4.2617 1.7086-2.173 3.341-4.4085 4.8926-6.7031 0.51718-0.76488 1.0243-1.5367 1.5234-2.3144 0.49912-0.77778 0.98994-1.5612 1.4707-2.3516 2.8845-4.7423 5.4359-9.7096 7.6211-14.867 0.72818-1.7186 1.4168-3.4588 2.0625-5.2188 0.00021-0.00058-0.00021-0.001 0-0.002 0.96878-2.6407 1.8429-5.3259 2.6191-8.0527 0.51764-1.8185 0.99097-3.6541 1.4199-5.5078 0.21442-0.92656 0.41756-1.8561 0.60937-2.791 0.19181-0.93491 0.37212-1.8734 0.54102-2.8164 0.33779-1.8859 0.63068-3.7888 0.875-5.7051 0.12215-0.95815 0.23174-1.9195 0.33007-2.8848 0.0983-0.96528 0.18361-1.9341 0.25782-2.9062 0.0742-0.97212 0.13772-1.9471 0.1875-2.9258 0.0498-0.97864 0.0863-1.9604 0.11132-2.9453 0.025-0.98489 0.0371-1.974 0.0371-2.9648 0-2.9724-0.11332-5.9176-0.33593-8.834-0.0742-0.97212-0.15948-1.941-0.25782-2.9062-0.49165-4.8264-1.2834-9.5664-2.3555-14.199-0.42885-1.8531-0.90246-3.688-1.4199-5.5059-0.51746-1.8179-1.078-3.6182-1.6816-5.3984-0.30183-0.89012-0.61457-1.776-0.9375-2.6562-0.96897-2.6413-2.0321-5.2362-3.1855-7.7832-0.76878-1.6977-1.5781-3.3727-2.4258-5.0254-0.84768-1.6527-1.734-3.2814-2.6582-4.8867-0.46209-0.80268-0.9333-1.6002-1.4141-2.3906-0.96151-1.5808-1.9598-3.1363-2.9941-4.666-0.51718-0.76488-1.0432-1.5237-1.5781-2.2754-1.6048-2.255-3.2897-4.4494-5.0488-6.5801-0.58638-0.71024-1.1803-1.4136-1.7832-2.1094-0.60261-0.69545-1.2152-1.3837-1.834-2.0645-0.00032-0.000353 0.00032-0.0016 0-0.002-0.61917-0.68109-1.2458-1.3535-1.8809-2.0195-0.63574-0.66673-1.2783-1.3252-1.9297-1.9766-0.65074-0.65074-1.3085-1.2926-1.9746-1.9277-0.66642-0.63544-1.34-1.2614-2.0215-1.8809-0.6811-0.61917-1.3686-1.2311-2.0645-1.834-0.69581-0.60293-1.3991-1.1968-2.1094-1.7832-1.4205-1.1728-2.8694-2.3132-4.3457-3.418-2.2145-1.6572-4.4909-3.237-6.8242-4.7344-0.77778-0.49912-1.5612-0.988-2.3516-1.4688-0.79038-0.48076-1.5879-0.95197-2.3906-1.4141-0.80268-0.46209-1.6111-0.91626-2.4258-1.3594-0.81467-0.44312-1.6346-0.87498-2.4609-1.2988-1.6527-0.84768-3.3297-1.657-5.0273-2.4258-14.43-6.5345-30.44-10.176-47.283-10.176zm-6.375 12.961v14.521 0.0039c0.00014 0.21883 0.0116 0.4353 0.0332 0.64844 0.007 0.06612 0.0206 0.1298 0.0293 0.19531 0.0197 0.14831 0.0386 0.2965 0.0684 0.44141 0.0423 0.20614 0.0946 0.40907 0.15625 0.60742 0.0454 0.14636 0.10079 0.28806 0.15625 0.42969 0.0202 0.05152 0.0351 0.1054 0.0566 0.15625 0.00056 0.0013 0.001 0.0026 0.002 0.0039 0.003 0.0067 0.007 0.01283 0.01 0.01953 0.15915 0.37275 0.35207 0.72829 0.57617 1.0605 0.00081 0.0012 0.001 0.0027 0.002 0.0039 0.11391 0.16836 0.23618 0.32996 0.36523 0.48633 0.00091 0.0011 0.001 0.0028 0.002 0.0039 1.1696 1.4173 2.9384 2.3203 4.9199 2.3203 3.0824 0 5.6535-2.1859 6.248-5.0918 0.00026-0.0012-0.00025-0.0027 0-0.0039 0.0844-0.41397 0.12891-0.84234 0.12891-1.2812v-0.0039-14.521c10.208 0.63174 20.016 2.7643 29.203 6.1855l-5.6602 13.5v0.002c-0.11314 0.27015-0.19729 0.5457-0.25195 0.82227-0.00012 0.000601 0.00011 0.0014 0 0.002-0.0545 0.27652-0.081 0.55457-0.0801 0.83008v0.002c0.001 0.27549 0.0287 0.5474 0.082 0.81445 0.00013 0.000634-0.00013 0.0013 0 0.002 0.0535 0.26705 0.13354 0.52811 0.23633 0.7793 0.00023 0.000577-0.00024 0.0014 0 0.002 0.1029 0.25119 0.22973 0.4928 0.3789 0.7207 0.00032 0.000484-0.00031 0.0015 0 0.002 0.1493 0.22792 0.32309 0.44148 0.51563 0.63867 0.38548 0.39488 0.85366 0.72028 1.3945 0.94726 0.00083 0.000349 0.001 0.0016 0.002 0.002 0.53739 0.22533 1.0941 0.33203 1.6426 0.33203 0.25832 0 0.5124-0.03198 0.76367-0.07813 0.0553-0.01016 0.10926-0.02284 0.16406-0.03516 0.2062-0.04632 0.40693-0.10755 0.60352-0.18359 0.0404-0.0156 0.0812-0.0281 0.12109-0.04492 0.46936-0.19809 0.901-0.48009 1.2754-0.83594 0.0364-0.03463 0.0702-0.0714 0.10547-0.10742 0.14821-0.15125 0.2844-0.31531 0.41016-0.49023 0.0315-0.04378 0.0638-0.08564 0.0937-0.13086 0.14574-0.21999 0.27908-0.44882 0.38477-0.70117l5.6562-13.492c1.1024 0.51916 2.1949 1.0583 3.2754 1.6152 1.082 0.55776 2.1518 1.1337 3.2109 1.7285 1.0584 0.5946 2.1039 1.2072 3.1387 1.8379 0.00047 0.000292 0.001-0.000292 0.002 0 1.0343 0.63039 2.0566 1.2797 3.0664 1.9453 2.021 1.3319 3.9922 2.7331 5.9102 4.2012 1.9176 1.4677 3.7802 3.0008 5.5879 4.5977l-10.236 10.238c-0.15571 0.15566-0.30125 0.31739-0.4375 0.48438-0.27248 0.33389-0.50656 0.68841-0.70117 1.0586-0.19461 0.37018-0.35005 0.75601-0.4668 1.1504-0.11959 0.40385-0.19835 0.81606-0.23632 1.2324-0.0363 0.39687-0.0359 0.7966 0.002 1.1934 0.00006 0.000648-0.00006 0.0013 0 0.002 0.0195 0.20259 0.0491 0.40513 0.0879 0.60547 0.0389 0.20099 0.0881 0.40044 0.14648 0.59766 0.11678 0.39442 0.2722 0.78014 0.4668 1.1504 0.0973 0.18512 0.20356 0.36616 0.32031 0.54297 0.11675 0.1768 0.24466 0.34864 0.38086 0.51562 0.00034 0.000409-0.00033 0.0015 0 0.002 0.13594 0.16659 0.28219 0.32711 0.4375 0.48242 0.00035 0.000346-0.00034 0.0016 0 0.002 0.31132 0.31132 0.64637 0.58292 1 0.81641 0.17682 0.11674 0.35785 0.22303 0.54297 0.32031 0.18513 0.09729 0.37448 0.18584 0.56641 0.26367 0.57577 0.23348 1.1793 0.37916 1.7891 0.4375 0.20329 0.01945 0.40726 0.0293 0.61133 0.0293 0.20396 0 0.40809-0.0098 0.61133-0.0293 1.4227-0.13632 2.8072-0.74987 3.8965-1.8398l10.238-10.236c0.92318 1.0451 1.8206 2.113 2.7012 3.1953 0.25629 0.31497 0.50327 0.63703 0.75586 0.95508 0.62559 0.78778 1.2431 1.5824 1.8457 2.3887 0.28096 0.37591 0.55613 0.75686 0.83203 1.1367 0.56605 0.7794 1.1216 1.5676 1.666 2.3633 0.31928 0.46667 0.64338 0.93018 0.95508 1.4023 0.16762 0.25389 0.3346 0.50821 0.5 0.76367 0.55505 0.85729 1.0991 1.7211 1.6289 2.5957 0.13138 0.21686 0.25886 0.43639 0.38867 0.6543 0.50126 0.84154 0.99316 1.69 1.4707 2.5469 0.0703 0.12609 0.14313 0.25053 0.21289 0.37695 0.51662 0.93629 1.0142 1.884 1.502 2.8379 0.12145 0.23741 0.24363 0.47442 0.36328 0.71289 0.47766 0.95242 0.94215 1.9137 1.3906 2.8828 0.0286 0.0618 0.0574 0.12368 0.0859 0.18555l-13.539 5.5371c-2.1734 0.88855-3.2128 3.3716-2.3242 5.5449 0.67344 1.6462 2.2616 2.6426 3.9375 2.6426 0.53569 0 1.0794-0.10239 1.6074-0.31836l13.552-5.5415c0.0123 0.0339 0.0248 0.0676 0.0371 0.10156 0.005 0.0138 0.0106 0.0272 0.0156 0.041 0.33515 0.92899 0.65228 1.8654 0.96094 2.8066 0.0933 0.28446 0.18448 0.56991 0.27539 0.85547 0.31556 0.99194 0.62247 1.9874 0.9082 2.9922 0.001 0.005 0.002 0.0104 0.004 0.0156 0.006 0.0194 0.0101 0.0392 0.0156 0.0586 0.28995 1.0225 0.55982 2.0527 0.81836 3.0879 0.0508 0.20302 0.10279 0.40589 0.15235 0.60938 0.26018 1.0699 0.50824 2.1458 0.73437 3.2285 0.002 0.01 0.004 0.0195 0.006 0.0293 0.005 0.0252 0.008 0.051 0.0137 0.0762 0.23349 1.1239 0.44837 2.2537 0.64453 3.3906 0.01 0.056 0.0197 0.1119 0.0293 0.16797 0.19883 1.1641 0.37806 2.3347 0.53711 3.5117 0.006 0.0448 0.0116 0.0899 0.0176 0.13476 0.15602 1.1663 0.29386 2.3393 0.41015 3.5176 0.002 0.017 0.004 0.0338 0.006 0.0508 0.00077 0.008 0.001 0.0156 0.002 0.0234 0.11778 1.2023 0.21334 2.411 0.28906 3.625 0.00097 0.0156 0.00099 0.0313 0.002 0.0469h-14.523c-3.5228 0-6.377 2.855-6.377 6.377 0 3.5219 2.8542 6.377 6.377 6.377h14.523c-0.001 0.0182-0.00081 0.0365-0.002 0.0547-0.0777 1.2445-0.17692 2.4827-0.29883 3.7148-0.001 0.013-0.003 0.0261-0.004 0.0391-0.002 0.0241-0.005 0.0481-0.008 0.0723-0.12392 1.2387-0.26966 2.4718-0.4375 3.6973-0.16214 1.1838-0.34641 2.3606-0.54883 3.5313-0.0246 0.14214-0.051 0.28383-0.0762 0.42578-0.40048 2.2589-0.87715 4.4917-1.4238 6.6973-0.0536 0.21617-0.10708 0.43281-0.16211 0.64844-0.26782 1.0508-0.55134 2.0952-0.85156 3.1328-0.0535 0.18473-0.10954 0.36844-0.16406 0.55274-0.26966 0.91248-0.55137 1.819-0.8457 2.7207-0.0682 0.20872-0.13364 0.41882-0.20313 0.62695-0.32201 0.96521-0.66182 1.9228-1.0117 2.875-0.0506 0.13765-0.10311 0.27474-0.15429 0.41211l-13.496-5.6582c-2.1657-0.90813-4.6563 0.11139-5.5644 2.2754-0.90726 2.1657 0.11163 4.6572 2.2773 5.5644l13.486 5.6562c-0.0613 0.13012-0.12566 0.25885-0.1875 0.38867-0.41748 0.87604-0.84572 1.7453-1.2871 2.6074-0.0708 0.13838-0.1395 0.27799-0.21094 0.41601-0.49024 0.94691-0.99701 1.885-1.5156 2.8144-0.1134 0.20324-0.22901 0.40505-0.34375 0.60743-0.52154 0.91989-1.0527 1.8324-1.6016 2.7344-0.0117 0.0192-0.0215 0.0394-0.0332 0.0586-0.007 0.0117-0.0143 0.0234-0.0215 0.0351-0.5617 0.92079-1.1428 1.829-1.7324 2.7305-0.11893 0.18179-0.23738 0.36393-0.35742 0.54492-0.28647 0.43195-0.58414 0.85587-0.87696 1.2832-0.54347 0.79304-1.0952 1.5786-1.6602 2.3555-0.28613 0.39346-0.57563 0.78462-0.86719 1.1738-0.57685 0.76991-1.1659 1.5302-1.7637 2.2832-0.26367 0.33214-0.52333 0.6673-0.79102 0.99609-0.87199 1.0709-1.7601 2.1296-2.6738 3.1641l-10.23-10.24c-0.31131-0.31131-0.64832-0.58292-1.002-0.81641-0.88331-0.58349-1.8809-0.924-2.8965-1.0215-0.00065-0.00006-0.001 0.00006-0.002 0-0.81298-0.0778-1.6369 0.00082-2.4258 0.23437-0.19719 0.0584-0.39208 0.12527-0.58398 0.20313-0.19193 0.0779-0.38128 0.16637-0.56641 0.26367-0.18509 0.0973-0.36619 0.20353-0.54297 0.32031-0.35323 0.23325-0.68897 0.50748-1 0.81836-0.00034 0.00035-0.002-0.00034-0.002 0-0.46697 0.46697-0.84487 0.9876-1.1367 1.543-0.19457 0.37025-0.35006 0.75597-0.4668 1.1504-0.0584 0.1972-0.10757 0.39668-0.14648 0.59766-0.19453 1.0049-0.1455 2.0472 0.14648 3.0332 0.1168 0.39439 0.27216 0.78021 0.4668 1.1504s0.42868 0.72471 0.70117 1.0586c0.13625 0.16694 0.28179 0.32877 0.4375 0.48437l10.236 10.238c-0.0139 0.0122-0.0291 0.0229-0.043 0.0352-1.0289 0.90794-2.0776 1.7915-3.1426 2.6582-0.33714 0.27434-0.68278 0.53848-1.0234 0.8086-0.75549 0.59906-1.5165 1.1915-2.2891 1.7695-0.40126 0.30019-0.80714 0.59425-1.2129 0.88867-0.7494 0.54379-1.507 1.0778-2.2715 1.6016-0.51887 0.35547-1.0349 0.71445-1.5606 1.0606-0.19046 0.12542-0.38092 0.25082-0.57226 0.375-0.90632 0.58808-1.8223 1.1648-2.748 1.7246-0.15852 0.0959-0.31944 0.18816-0.47852 0.2832-0.95431 0.5701-1.9146 1.1284-2.8887 1.668-0.0171 0.009-0.0336 0.0198-0.0508 0.0293-0.006 0.003-0.0117 0.007-0.0176 0.01-1.0065 0.55653-2.0259 1.092-3.0527 1.6152-0.15357 0.0783-0.30693 0.15685-0.46094 0.23437-1.0236 0.51502-2.0568 1.0168-3.0996 1.498-0.0272 0.0126-0.0548 0.0246-0.082 0.0371l-5.5391-13.539c-0.88858-2.1734-3.3716-3.2148-5.5449-2.3262-2.1717 0.88856-3.2156 3.3673-2.3262 5.5449l5.5449 13.553c-1.0343 0.37491-2.0775 0.73025-3.127 1.0723-0.171 0.0558-0.34227 0.11111-0.51367 0.16601-2.1536 0.68917-4.3382 1.3103-6.5508 1.8574-0.0651 0.0161-0.13014 0.0328-0.19531 0.0488-5.818 1.4264-11.829 2.3551-17.986 2.7363v-14.525c0-3.5228-2.855-6.377-6.377-6.377-3.5219 0-6.377 2.8542-6.377 6.377v14.525c-3.8282-0.23691-7.6006-0.68419-11.305-1.332-2.4302-0.42504-4.8308-0.93729-7.1992-1.5312-0.065-0.0163-0.13032-0.0324-0.19531-0.0488-1.1461-0.28984-2.2836-0.59942-3.4141-0.92773-0.0847-0.0246-0.16928-0.0494-0.2539-0.0742-1.1067-0.32457-2.2059-0.66655-3.2969-1.0274-0.0307-0.0101-0.0611-0.0211-0.0918-0.0312-1.0898-0.36158-2.1708-0.74355-3.2441-1.1406-0.06779-0.0251-0.1354-0.0509-0.20312-0.0762l5.6602-13.5c0.22533-0.53738 0.33204-1.0941 0.33204-1.6426 0-1.6615-0.98108-3.24-2.6094-3.9219-2.1657-0.90727-4.6572 0.11164-5.5645 2.2774l-5.6562 13.49c-1.0564-0.49755-2.1024-1.0146-3.1387-1.5469-0.06939-0.0357-0.13969-0.0697-0.20898-0.10547-1.0203-0.52703-2.0293-1.0728-3.0293-1.6328-0.08471-0.0474-0.16935-0.0949-0.25391-0.14257-1.0088-0.5687-2.0088-1.1523-2.9961-1.7539-0.95293-0.58067-1.892-1.1784-2.8242-1.7891-0.1447-0.0948-0.2894-0.18965-0.43359-0.28516-0.48968-0.32431-0.96937-0.66363-1.4531-0.99609-0.72446-0.49797-1.4434-1.0016-2.1543-1.5176-0.44069-0.31981-0.87908-0.64212-1.3145-0.96875-0.71083-0.53335-1.413-1.0777-2.1094-1.6289-0.39308-0.31113-0.78934-0.61879-1.1777-0.93554-0.9563-0.77995-1.899-1.5773-2.8262-2.3906-0.08954-0.0785-0.18222-0.15357-0.27148-0.23242l10.236-10.235c0.000346-0.00034-0.000346-0.002 0-0.002 0.15536-0.15536 0.30152-0.31579 0.4375-0.48242 0.000335-0.00041-0.000335-0.002 0-0.002 0.13624-0.16702 0.26214-0.3388 0.37891-0.51563 0.23353-0.35365 0.42833-0.72552 0.58398-1.1094 0.30758-0.75851 0.46116-1.5646 0.46484-2.3711 0.000042-0.009 0.002-0.0182 0.002-0.0273-0.000001-0.00065 0-0.001 0-0.002 0-0.81527-0.15595-1.6312-0.4668-2.3984-0.000221-0.00055 0.00022-0.001 0-0.002-0.15566-0.38386-0.35046-0.75382-0.58398-1.1074-0.23353-0.3536-0.50498-0.69074-0.81641-1.002-1.7129-1.7134-4.1564-2.2466-6.3262-1.6035-0.19638 0.0582-0.3909 0.12562-0.58203 0.20313-0.000772 0.00031-0.0012 0.002-0.002 0.002-0.19109 0.0776-0.38011 0.16289-0.56445 0.25977-0.00077 0.0004-0.0012 0.002-0.002 0.002-0.1843 0.097-0.36496 0.20407-0.54102 0.32031-0.00075 0.0005-0.0012 0.001-0.002 0.002-0.17601 0.11633-0.3474 0.24133-0.51367 0.37695-0.000713 0.00058-0.0012 0.001-0.002 0.002-0.16624 0.13571-0.32742 0.28055-0.48242 0.43555-0.000658 0.00066-0.0013 0.001-0.002 0.002l-10.236 10.236c-1.6448-1.862-3.2247-3.7833-4.7324-5.7617-0.000318-0.00041 0.000318-0.002 0-0.002-4.5238-5.9361-8.4143-12.38-11.568-19.23l13.541-5.5391c0.04321-0.0177 0.07878-0.0455 0.12109-0.0644 0.19193-0.0857 0.37617-0.18148 0.54883-0.29102 0.08532-0.0542 0.16374-0.1143 0.24414-0.17383 0.12235-0.0904 0.23905-0.18531 0.34961-0.28711 0.07461-0.0688 0.14775-0.13743 0.2168-0.21093 0.13355-0.14192 0.25524-0.29166 0.36719-0.44922 0.02801-0.0395 0.06128-0.0749 0.08789-0.11524 0.000974-0.001 0.0029-0.002 0.0039-0.004 0.13215-0.20065 0.24156-0.41549 0.33789-0.63477 0.02727-0.0622 0.04799-0.126 0.07227-0.18945 0.06687-0.17425 0.1224-0.35126 0.16602-0.53321 0.01667-0.0698 0.03372-0.13833 0.04687-0.20898 0.03845-0.20544 0.06059-0.41232 0.06836-0.62305 0.0015-0.042 0.0095-0.0829 0.0098-0.125 0.000069-0.01 0.002-0.0194 0.002-0.0293 0-0.15206-0.02821-0.30603-0.04492-0.45899-0.01236-0.11258-0.0096-0.22545-0.03125-0.33789-0.05224-0.27197-0.13141-0.54186-0.24023-0.80859-0.000483-0.001 0.000484-0.003 0-0.004-0.11061-0.27029-0.24808-0.52216-0.4043-0.75586-0.0008-0.001-0.0012-0.003-0.002-0.004-1.1006-1.6429-3.237-2.3419-5.1387-1.5644l-13.553 5.5449c-0.19837-0.54729-0.37916-1.1027-0.56836-1.6543-0.19757-0.57591-0.40432-1.1481-0.5918-1.7285-0.36646-1.1346-0.71369-2.2782-1.041-3.4297-0.000389-0.001-0.0016-0.003-0.002-0.004-0.20951-0.73715-0.39662-1.4828-0.58984-2.2266-0.10889-0.41921-0.22836-0.83458-0.33203-1.2558-0.28739-1.1677-0.55599-2.3443-0.80274-3.5274-0.00026-0.001 0.000261-0.003 0-0.004-0.09365-0.44913-0.17009-0.90423-0.25781-1.3555-0.30394-1.5636-0.57304-3.1386-0.80469-4.7266-0.05406-0.37062-0.11985-0.73748-0.16992-1.1094-0.16316-1.2119-0.30556-2.4294-0.42578-3.6543-0.000063-0.00064 0.000063-0.001 0-0.002-0.1202-1.2249-0.21841-2.4563-0.29492-3.6934h14.525c1.7619 0 3.3557-0.71448 4.5098-1.8691 0.14392-0.14391 0.28241-0.2941 0.41211-0.45117 0.000331-0.0004-0.000331-0.002 0-0.002 0.12964-0.15707 0.25283-0.32106 0.36719-0.49023 0.000312-0.00046-0.000311-0.001 0-0.002 0.11429-0.16917 0.2204-0.34324 0.31836-0.52344 0.000279-0.00051-0.000279-0.001 0-0.002 0.0979-0.18021 0.18903-0.36451 0.26953-0.55469 0.000237-0.00056-0.000237-0.001 0-0.002 0.08044-0.19019 0.15286-0.38489 0.21484-0.58399 0.000186-0.0006-0.000186-0.001 0-0.002 0.06193-0.19911 0.11384-0.40243 0.15625-0.60938 0.000128-0.00062-0.000128-0.001 0-0.002 0.04222-0.20635 0.07393-0.41777 0.0957-0.63086 0.00013-0.001-0.000129-0.003 0-0.004 0.02171-0.21377 0.03314-0.42893 0.0332-0.64843 0-0.22079-0.01131-0.43929-0.0332-0.6543-0.02164-0.21313-0.0536-0.42447-0.0957-0.63086-0.000255-0.001 0.000255-0.003 0-0.004-0.04222-0.20635-0.09463-0.40886-0.15625-0.60742-0.1862-0.59992-0.45867-1.1604-0.80274-1.6699-0.000292-0.00043 0.000293-0.002 0-0.002-0.22894-0.33887-0.49118-0.6532-0.7793-0.94141-1.1541-1.1546-2.7483-1.8711-4.5098-1.8711h-14.525c0.07889-1.2748 0.18136-2.5428 0.30664-3.8047 0.000128-0.001-0.000128-0.003 0-0.004 0.12539-1.2625 0.27431-2.5169 0.44531-3.7656 0.000088-0.00064-0.000087-0.001 0-0.002 0.17103-1.2487 0.36426-2.4906 0.58008-3.7246 0.000111-0.00063-0.00011-0.001 0-0.002 0.21584-1.234 0.45505-2.4612 0.71484-3.6797 0.000133-0.00063-0.000132-0.001 0-0.002 0.25982-1.2185 0.5408-2.4287 0.84375-3.6309 0.000154-0.00061-0.000154-0.001 0-0.002 0.30298-1.2021 0.62737-2.3952 0.97266-3.5801 0.000175-0.0006-0.000174-0.001 0-0.002 0.34531-1.1849 0.71282-2.3605 1.0996-3.5274 0.000193-0.00058-0.000194-0.001 0-0.002 0.38681-1.1668 0.79519-2.3248 1.2227-3.4727l13.502 5.6602 0.002 0.002c0.27058 0.11347 0.54535 0.19507 0.82227 0.25 0.27305 0.0542 0.54801 0.082 0.82031 0.082 0.26378 0 0.52294-0.032 0.7793-0.0801 0.04089-0.008 0.08049-0.0185 0.12109-0.0273 0.21287-0.0464 0.42028-0.10947 0.62305-0.1875 0.04501-0.0173 0.09037-0.0319 0.13477-0.0508 0.46571-0.19742 0.89358-0.47715 1.2656-0.83007 0.03848-0.0365 0.07413-0.0752 0.11133-0.11329 0.14536-0.14864 0.27861-0.30901 0.40234-0.48047 0.03506-0.0486 0.0723-0.0942 0.10547-0.14453 0.14328-0.21746 0.27465-0.44637 0.37891-0.69531 0.11284-0.26936 0.19524-0.5426 0.25-0.81836 0.05465-0.27525 0.08031-0.55186 0.08008-0.82617-0.000031-0.0362-0.0069-0.0713-0.0078-0.10742-0.0054-0.21145-0.02609-0.42046-0.0625-0.62695-0.01403-0.0793-0.03428-0.15617-0.05273-0.23438-0.04157-0.17687-0.09269-0.34975-0.15625-0.51954-0.02312-0.06166-0.04437-0.12307-0.07031-0.18359-0.09722-0.22722-0.20825-0.44856-0.34375-0.65625-0.000497-0.000762-0.0015-0.0012-0.002-0.002-0.1391-0.21292-0.30356-0.40933-0.48047-0.5957-0.03465-0.03644-0.07138-0.07018-0.10742-0.10547-0.14915-0.14633-0.3102-0.28173-0.48242-0.40625-0.04752-0.03428-0.09337-0.06909-0.14258-0.10156-0.21935-0.14511-0.44774-0.2775-0.69922-0.38281l-13.49-5.6529c0.51953-1.103 1.0578-2.1962 1.6152-3.2773 0.000263-0.00051-0.000263-0.0014 0-0.002 2.7868-5.4052 6.0421-10.531 9.7109-15.324 0.00031-0.000404-0.00031-0.0015 0-0.002 1.4674-1.9172 3.0031-3.7805 4.5996-5.5879l10.236 10.236v0.002c1.2457 1.2457 2.8772 1.8672 4.5098 1.8672 1.2238 0 2.447-0.3502 3.5078-1.0508 0.3536-0.23353 0.69074-0.50498 1.002-0.81641 0.31142-0.31132 0.58284-0.64639 0.81641-1 0.000311-0.00047-0.00031-0.0015 0-0.002 0.23315-0.35318 0.42848-0.72412 0.58398-1.1074 0.000231-0.000571-0.000232-0.0014 0-0.002 0.15537-0.38328 0.27186-0.77834 0.34961-1.1797 0.000123-0.000633-0.000122-0.0013 0-0.002 0.03879-0.20038 0.06844-0.40282 0.08789-0.60547 0.000062-0.000647-0.000062-0.0013 0-0.002 0.01939-0.20264 0.02923-0.40595 0.0293-0.60938v-0.002c0-0.20331-0.01-0.40679-0.0293-0.60938-0.000062-0.000642 0.000061-0.0013 0-0.002-0.0032-0.03329-0.01-0.06636-0.01367-0.09961-0.01906-0.17036-0.04145-0.33915-0.07422-0.50781-0.03864-0.19959-0.0867-0.39787-0.14453-0.59375-0.000409-0.0014-0.0015-0.0025-0.002-0.0039-0.01738-0.05871-0.04145-0.11554-0.06055-0.17383-0.08564-0.26137-0.18827-0.51689-0.30859-0.76758-0.03275-0.06822-0.06039-0.13782-0.0957-0.20508-0.000413-0.000785-0.0015-0.0012-0.002-0.002-0.0248-0.04719-0.05597-0.09199-0.08203-0.13867-0.17776-0.31838-0.38059-0.6276-0.61719-0.91797-0.000878-0.0011-0.0011-0.0028-0.002-0.0039-0.13522-0.16552-0.28083-0.32543-0.43541-0.4801l-0.002-0.0039-10.233-10.224c7.449-6.58 15.859-12.095 24.994-16.301l3.2168 7.8613 2.3223 5.6777 0.002 0.002c0.004 0.0096 0.0097 0.01774 0.01367 0.02734 0.09898 0.23722 0.22092 0.45719 0.35547 0.66602 0.03666 0.0568 0.07617 0.10946 0.11523 0.16406 0.11447 0.16029 0.23768 0.31055 0.37109 0.45117 0.04654 0.04898 0.09199 0.09802 0.14062 0.14453 0.17978 0.17227 0.36924 0.33183 0.57422 0.46875 0.21499 0.14361 0.44313 0.26308 0.6797 0.36523 0.0405 0.01747 0.082 0.03066 0.12305 0.04687 0.19675 0.07788 0.39877 0.14145 0.60546 0.18945 0.0529 0.01225 0.10486 0.02492 0.15821 0.03516 0.24622 0.0474 0.49451 0.077 0.74804 0.08008 0.0171 0.000208 0.0337 0.0039 0.0508 0.0039 0.2588 0 0.52104-0.02719 0.78124-0.07617 0.27838-0.0524 0.55521-0.1286 0.82813-0.24023 0.0559-0.02289 0.10183-0.05902 0.15625-0.08398 0.176-0.08067 0.34629-0.16856 0.50586-0.26953 0.0854-0.05407 0.16366-0.11443 0.24414-0.17383 0.12927-0.09531 0.253-0.1948 0.36914-0.30273 0.0675-0.06278 0.13435-0.12473 0.19727-0.19141 0.12206-0.1292 0.23177-0.26782 0.33593-0.41016 0.0602-0.08232 0.12183-0.16187 0.17578-0.24805 0.10595-0.1689 0.19812-0.34381 0.2793-0.52539 0.0392-0.08773 0.0703-0.1774 0.10352-0.26758 0.0537-0.14556 0.10107-0.29251 0.13867-0.44336 0.0221-0.08895 0.0422-0.17717 0.0586-0.26758 0.0328-0.18012 0.0513-0.36262 0.0606-0.54688 0.003-0.06489 0.0135-0.12814 0.0137-0.19336 0.00003-0.0059 0.002-0.01165 0.002-0.01758 0-0.1232-0.0242-0.24723-0.0352-0.37109-0.0126-0.1412-0.0139-0.28276-0.041-0.42383-0.0479-0.24957-0.12523-0.49876-0.2207-0.74414-0.008-0.02128-0.0109-0.04323-0.0195-0.06445l-0.002-0.0059-5.5411-13.549c8.9463-3.2427 18.47-5.2667 28.371-5.8789z" fill="#006B6B"/></svg>
