<?xml version="1.0" encoding="UTF-8" standalone="no"?>
<!-- Created with Inkscape (http://www.inkscape.org/) -->

<svg
   xmlns:dc="http://purl.org/dc/elements/1.1/"
   xmlns:cc="http://creativecommons.org/ns#"
   xmlns:rdf="http://www.w3.org/1999/02/22-rdf-syntax-ns#"
   xmlns:svg="http://www.w3.org/2000/svg"
   xmlns="http://www.w3.org/2000/svg"
   xmlns:sodipodi="http://sodipodi.sourceforge.net/DTD/sodipodi-0.dtd"
   xmlns:inkscape="http://www.inkscape.org/namespaces/inkscape"
   width="30"
   height="90"
   viewBox="0 0 30.000001 89.999999"
   id="svg5406"
   version="1.1"
   inkscape:version="0.91 r13725"
   sodipodi:docname="rating.svg">
  <defs
     id="defs5408" />
  <sodipodi:namedview
     id="base"
     pagecolor="#ffffff"
     bordercolor="#666666"
     borderopacity="1.0"
     inkscape:pageopacity="0.0"
     inkscape:pageshadow="2"
     inkscape:zoom="5.6"
     inkscape:cx="7.8377277"
     inkscape:cy="43.236681"
     inkscape:document-units="px"
     inkscape:current-layer="layer1"
     showgrid="false"
     fit-margin-top="0"
     fit-margin-left="0"
     fit-margin-right="0"
     fit-margin-bottom="0"
     units="px"
     inkscape:window-width="1920"
     inkscape:window-height="1017"
     inkscape:window-x="-8"
     inkscape:window-y="-8"
     inkscape:window-maximized="1" />
  <metadata
     id="metadata5411">
    <rdf:RDF>
      <cc:Work
         rdf:about="">
        <dc:format>image/svg+xml</dc:format>
        <dc:type
           rdf:resource="http://purl.org/dc/dcmitype/StillImage" />
        <dc:title></dc:title>
      </cc:Work>
    </rdf:RDF>
  </metadata>
  <g
     inkscape:label="Layer 1"
     inkscape:groupmode="layer"
     id="layer1"
     transform="translate(-418.50879,-57.231704)">
    <path
       sodipodi:type="star"
       style="opacity:1;fill:#11add1;fill-opacity:1;fill-rule:evenodd;stroke:#4f5d73;stroke-width:2.61602187;stroke-miterlimit:4;stroke-dasharray:none;stroke-opacity:0.98818898"
       id="path5120"
       sodipodi:sides="5"
       sodipodi:cx="19.108896"
       sodipodi:cy="31.771029"
       sodipodi:r1="19.988298"
       sodipodi:r2="8.0569639"
       sodipodi:arg1="0.94677327"
       sodipodi:arg2="1.5750918"
       inkscape:flatsided="false"
       inkscape:rounded="0.0328633"
       inkscape:randomized="0"
       d="M 30.788154,47.992219 C 30.407355,48.266394 19.543516,39.829934 19.074288,39.827918 18.605059,39.825903 7.6691453,48.168722 7.2907163,47.891286 6.9122872,47.61385 11.578727,34.674715 11.435644,34.22783 11.292562,33.780944 -0.02131443,25.958345 0.12560205,25.512705 c 0.14691648,-0.44564 13.89477395,-0.006 14.27557195,-0.280179 0.380799,-0.274175 4.324353,-13.451627 4.793581,-13.449611 0.469229,0.002 4.299432,13.212859 4.677861,13.490295 0.378429,0.277436 14.129556,-0.04408 14.272638,0.402808 0.143083,0.446886 -11.237578,8.172001 -11.384495,8.617641 -0.146916,0.44564 4.408193,13.424385 4.027395,13.69856 z"
       inkscape:transform-center-x="-0.026173519"
       inkscape:transform-center-y="-1.9443863"
       transform="matrix(0.73725187,0,0,0.77180158,419.40146,109.14711)" />
    <path
       sodipodi:type="star"
       style="opacity:1;fill:none;fill-opacity:1;fill-rule:evenodd;stroke:#4f5d73;stroke-width:2.61602187;stroke-miterlimit:4;stroke-dasharray:none;stroke-opacity:0.98818898"
       id="path5120-68"
       sodipodi:sides="5"
       sodipodi:cx="19.108896"
       sodipodi:cy="31.771029"
       sodipodi:r1="19.988298"
       sodipodi:r2="8.0569639"
       sodipodi:arg1="0.94677327"
       sodipodi:arg2="1.5750918"
       inkscape:flatsided="false"
       inkscape:rounded="0.0328633"
       inkscape:randomized="0"
       d="M 30.788154,47.992219 C 30.407355,48.266394 19.543516,39.829934 19.074288,39.827918 18.605059,39.825903 7.6691453,48.168722 7.2907163,47.891286 6.9122872,47.61385 11.578727,34.674715 11.435644,34.22783 11.292562,33.780944 -0.02131443,25.958345 0.12560205,25.512705 c 0.14691648,-0.44564 13.89477395,-0.006 14.27557195,-0.280179 0.380799,-0.274175 4.324353,-13.451627 4.793581,-13.449611 0.469229,0.002 4.299432,13.212859 4.677861,13.490295 0.378429,0.277436 14.129556,-0.04408 14.272638,0.402808 0.143083,0.446886 -11.237578,8.172001 -11.384495,8.617641 -0.146916,0.44564 4.408193,13.424385 4.027395,13.69856 z"
       inkscape:transform-center-x="-0.026173519"
       inkscape:transform-center-y="-1.9443863"
       transform="matrix(0.73725187,0,0,0.77180158,419.40146,49.147105)" />
    <path
       style="opacity:1;fill:#11add1;fill-opacity:1;fill-rule:evenodd;stroke:none;stroke-width:1.9540143;stroke-miterlimit:4;stroke-dasharray:none;stroke-opacity:1"
       inkscape:transform-center-x="-0.02682266"
       inkscape:transform-center-y="-1.9928076"
       d="m 433.66534,110.37897 c 0,0 -8.76865,6.59782 -9.0546,6.37836 -0.28595,-0.21948 3.24009,-10.45468 3.13196,-10.80818 -0.1081,-0.35349 -8.65706,-6.541378 -8.54604,-6.893898 0.111,-0.35252 10.49912,-0.005 10.78686,-0.22164 0.28774,-0.21686 3.62211,-10.639002 3.62211,-10.639002 z"
       id="path5120-6-01-0"
       inkscape:connector-curvature="0"
       sodipodi:nodetypes="csssscc" />
    <path
       sodipodi:type="star"
       style="opacity:1;fill:none;fill-opacity:1;fill-rule:evenodd;stroke:#4f5d73;stroke-width:2.61602187;stroke-miterlimit:4;stroke-dasharray:none;stroke-opacity:0.98818898"
       id="path5120-68-7"
       sodipodi:sides="5"
       sodipodi:cx="19.108896"
       sodipodi:cy="31.771029"
       sodipodi:r1="19.988298"
       sodipodi:r2="8.0569639"
       sodipodi:arg1="0.94677327"
       sodipodi:arg2="1.5750918"
       inkscape:flatsided="false"
       inkscape:rounded="0.0328633"
       inkscape:randomized="0"
       d="M 30.788154,47.992219 C 30.407355,48.266394 19.543516,39.829934 19.074288,39.827918 18.605059,39.825903 7.6691453,48.168722 7.2907163,47.891286 6.9122872,47.61385 11.578727,34.674715 11.435644,34.22783 11.292562,33.780944 -0.02131443,25.958345 0.12560205,25.512705 c 0.14691648,-0.44564 13.89477395,-0.006 14.27557195,-0.280179 0.380799,-0.274175 4.324353,-13.451627 4.793581,-13.449611 0.469229,0.002 4.299432,13.212859 4.677861,13.490295 0.378429,0.277436 14.129556,-0.04408 14.272638,0.402808 0.143083,0.446886 -11.237578,8.172001 -11.384495,8.617641 -0.146916,0.44564 4.408193,13.424385 4.027395,13.69856 z"
       inkscape:transform-center-x="-0.026173519"
       inkscape:transform-center-y="-1.9443863"
       transform="matrix(0.73725187,0,0,0.77180158,419.40146,79.147107)" />
  </g>
</svg>
