<?xml version="1.0" encoding="utf-8"?>
<!-- Generator: Adobe Illustrator 16.0.0, SVG Export Plug-In . SVG Version: 6.00 Build 0)  -->
<!DOCTYPE svg PUBLIC "-//W3C//DTD SVG 1.1//EN" "http://www.w3.org/Graphics/SVG/1.1/DTD/svg11.dtd">
<svg version="1.1" id="Layer_1" xmlns="http://www.w3.org/2000/svg" xmlns:xlink="http://www.w3.org/1999/xlink" x="0px" y="0px"
	 width="88.191px" height="88.191px" viewBox="0 0 88.191 88.191" enable-background="new 0 0 88.191 88.191" xml:space="preserve">
<circle fill="#02B2D3" stroke="#FFFFFF" stroke-width="4.6184" stroke-miterlimit="10" cx="44.095" cy="44.095" r="41.786"/>
<g>
	<g>
		<path opacity="0.4" fill="#505E73" d="M78.311,44.502c0,18.671-15.138,33.807-33.809,33.807S10.696,63.173,10.696,44.502
			c0-18.671,15.136-33.808,33.807-33.808S78.311,25.831,78.311,44.502"/>
		<path fill="#DFDFD0" d="M61.111,53.573c0.24-0.39,0.636-0.648,1.071-0.781c0.449-0.125,0.981-0.102,1.477,0.125l2.691,1.232
			c0.494,0.227,0.842,0.648,0.993,1.172c0.167,0.528,0.091,1.132-0.235,1.668c-0.316,0.541-0.793,0.92-1.301,1.064
			c-0.533,0.133-1.078,0.045-1.523-0.267l-2.436-1.682c-0.446-0.312-0.732-0.755-0.849-1.2
			C60.861,54.442,60.877,53.967,61.111,53.573"/>
		<path fill="#DFDFD0" d="M28.068,53.787c0.489,0.761,0.147,1.917-0.705,2.546l-2.413,1.712c-0.899,0.661-2.159,0.312-2.831-0.765
			c-0.646-1.09-0.253-2.406,0.725-2.85l2.671-1.27C26.52,52.7,27.608,53.01,28.068,53.787"/>
		<path fill="#DFDFD0" d="M25.455,44.272c0.006,0.901-0.776,1.726-1.876,1.844l-2.943,0.274c-1.067,0.116-2.074-0.814-2.082-2.082
			c0.033-1.267,0.953-2.208,2.036-2.104l2.949,0.239C24.62,42.55,25.488,43.369,25.455,44.272"/>
		<path fill="#DFDFD0" d="M27.954,34.719c-0.243,0.39-0.639,0.649-1.074,0.781c-0.448,0.125-0.979,0.102-1.477-0.125l-2.688-1.233
			c-0.495-0.226-0.844-0.648-0.993-1.172c-0.167-0.528-0.093-1.132,0.235-1.668c0.316-0.541,0.791-0.918,1.298-1.063
			c0.536-0.132,1.079-0.046,1.526,0.266l2.435,1.683c0.445,0.311,0.732,0.755,0.85,1.2C28.201,33.849,28.187,34.323,27.954,34.719"
			/>
		<path fill="#DFDFD0" d="M34.89,27.684c-0.76,0.487-1.916,0.145-2.546-0.71l-1.712-2.41c-0.66-0.902-0.312-2.16,0.763-2.833
			c1.093-0.646,2.407-0.251,2.852,0.725l1.27,2.672C35.976,26.134,35.667,27.222,34.89,27.684"/>
		<path fill="#DFDFD0" d="M44.407,25.068c-0.902,0.006-1.727-0.776-1.846-1.875l-0.275-2.945c-0.117-1.067,0.816-2.073,2.081-2.083
			c1.267,0.033,2.21,0.954,2.105,2.037l-0.24,2.948C46.128,24.235,45.31,25.103,44.407,25.068"/>
		<path fill="#DFDFD0" d="M53.958,27.567c-0.389-0.244-0.648-0.637-0.78-1.073c-0.126-0.449-0.103-0.98,0.124-1.478l1.233-2.688
			c0.225-0.495,0.647-0.844,1.172-0.994c0.526-0.167,1.131-0.092,1.666,0.235c0.542,0.316,0.92,0.792,1.065,1.298
			c0.131,0.534,0.045,1.08-0.267,1.525l-1.682,2.434c-0.312,0.447-0.755,0.734-1.198,0.849
			C54.828,27.815,54.353,27.801,53.958,27.567"/>
		<path fill="#DFDFD0" d="M60.994,34.504c-0.487-0.761-0.146-1.917,0.709-2.544l2.409-1.713c0.904-0.661,2.16-0.312,2.834,0.764
			c0.646,1.092,0.25,2.408-0.726,2.851l-2.671,1.27C62.543,35.591,61.454,35.28,60.994,34.504"/>
		<path fill="#DFDFD0" d="M63.609,44.019c-0.007-0.902,0.774-1.725,1.873-1.844l2.945-0.274c1.067-0.118,2.074,0.814,2.084,2.081
			c-0.033,1.267-0.953,2.208-2.037,2.103l-2.949-0.238C64.441,45.742,63.574,44.924,63.609,44.019"/>
		<g opacity="0.2">
			<g>
				<defs>
					<rect id="SVGID_1_" x="39.22" y="36.051" width="15.849" height="15.847"/>
				</defs>
				<clipPath id="SVGID_2_">
					<use xlink:href="#SVGID_1_"  overflow="visible"/>
				</clipPath>
				<path clip-path="url(#SVGID_2_)" fill="#221E20" d="M54.678,36.44c-0.436-0.437-1.119-0.514-1.63-0.188l-4.919,3.069
					l-3.281,2.048l0,0c-0.117-0.008-0.227-0.035-0.346-0.035c-2.919,0-5.282,2.364-5.282,5.284c0,0.117,0.026,0.229,0.035,0.346
					c0.175,2.635,2.266,4.727,4.903,4.9c0.115,0.008,0.225,0.035,0.344,0.035c2.918,0,5.28-2.365,5.28-5.281
					c0-0.119-0.024-0.23-0.031-0.347V46.27l2.048-3.281l3.065-4.918C55.194,37.548,55.119,36.872,54.678,36.44"/>
			</g>
		</g>
		<path fill="#C75D5D" d="M54.678,34.326c-0.436-0.437-1.119-0.512-1.63-0.187l-4.919,3.068l-3.281,2.047l0,0
			c-0.117-0.008-0.227-0.034-0.346-0.034c-2.919,0-5.282,2.364-5.282,5.282c0,0.117,0.026,0.23,0.035,0.347
			c0.175,2.635,2.266,4.727,4.903,4.9c0.115,0.008,0.225,0.036,0.344,0.036c2.918,0,5.28-2.366,5.28-5.283
			c0-0.119-0.024-0.229-0.031-0.346v-0.001l2.048-3.279l3.065-4.918C55.194,35.435,55.119,34.759,54.678,34.326"/>
		<path fill="#FFFFFF" d="M49.785,44.502c0,2.917-2.364,5.282-5.282,5.282c-2.919,0-5.282-2.365-5.282-5.282
			c0-2.917,2.363-5.282,5.282-5.282C47.42,39.22,49.785,41.586,49.785,44.502"/>
		<path fill="#F5CE86" d="M52.955,62.463c0,1.751-1.42,3.169-3.17,3.169H39.22c-1.751,0-3.17-1.418-3.17-3.169V60.35
			c0-1.752,1.419-3.17,3.17-3.17h10.564c1.75,0,3.17,1.418,3.17,3.17V62.463z"/>
	</g>
</g>
</svg>
